<?xml version="1.0" standalone="no"?>
<!DOCTYPE svg PUBLIC "-//W3C//DTD SVG 1.1//EN" "http://www.w3.org/Graphics/SVG/1.1/DTD/svg11.dtd" >
<svg>
<metadata>
Created by FontForge 20090914 at Wed Oct 19 00:42:34 2011
 By www-data
(c) by Abolfazl Seilsepour - +98 912 591 3420  -  seilsepor@yahoo.com
</metadata>
<defs>
<font id="FarAbasan" horiz-adv-x="1000" >
  <font-face 
    font-family="Far.Abasan"
    font-weight="400"
    font-stretch="normal"
    units-per-em="2048"
    panose-1="0 0 4 0 0 0 0 0 0 0"
    ascent="1638"
    descent="-410"
    bbox="-211 -1045 2060 2018"
    underline-thickness="60"
    underline-position="-850"
    unicode-range="U+0020-U+FEFC"
  />
<missing-glyph horiz-adv-x="1024" 
d="M128 0v1343h768v-1343h-768zM256 128h512v1087h-512v-1087z" />
    <glyph glyph-name=".notdef" unicode="&#x652;&#x64d;" horiz-adv-x="1024" 
d="M128 0v1343h768v-1343h-768zM256 128h512v1087h-512v-1087z" />
    <glyph glyph-name="copyright" unicode="&#x652;&#x64b;" horiz-adv-x="1816" 
d="M862 1495c125.333 0 247.5 -32 366.5 -96s211.833 -155.5 278.5 -274.5s100 -243.167 100 -372.5s-32.833 -253.333 -98.5 -372s-157.667 -210.5 -276 -275.5s-241.833 -97.5 -370.5 -97.5c-129.333 0 -252.833 32.5 -370.5 97.5s-209.5 156.833 -275.5 275.5
s-99 242.667 -99 372s33.5 253.5 100.5 372.5s160 210.5 279 274.5s240.833 96 365.5 96zM862 1431c-114 0 -225.169 -29.333 -333.502 -88s-193.166 -142.334 -254.499 -251.001s-92 -222 -92 -340s30 -230.833 90 -338.5s144 -191.667 252 -252s220.667 -90.5 338 -90.5
s230 30.167 338 90.5s192.167 144.333 252.5 252s90.5 220.5 90.5 338.5s-30.667 231.333 -92 340s-146.166 192.334 -254.499 251.001s-219.833 88 -334.5 88zM1230 1230l22 -293.999h-41c-26 83.333 -66.167 145.5 -120.5 186.5s-120.166 61.5 -197.499 61.5
c-58 0 -109.333 -12 -154 -36s-81.334 -55.667 -110.001 -95c-21.333 -30.667 -39 -71 -53 -121s-21 -102 -21 -156c0 -148.667 32 -258.167 96 -328.5s148 -105.5 252 -105.5c136 0 245 56.667 327 170l39 -20c-97.333 -142 -231 -213 -401 -213
c-140.667 0 -257 45.333 -349 136s-138 200.667 -138 330c0 134 49 248.333 147 343s223 142 375 142c33.333 0 60.333 -2 81 -6s59 -15 115 -33c16.667 -6 29 -9 37 -9c11.333 0 21 3.16699 29 9.5s16 19.166 24 38.499h41z" />
    <glyph glyph-name="uniE818" unicode="&#x651;&#x64b;" horiz-adv-x="0" 
d="M440 1721l-302 -124v79l302 120v-75zM471 1426c0 -34 -9.66992 -63.0029 -29.0029 -87.0029c-21.333 -25.333 -48.666 -38 -81.999 -38c-34 0 -61 17.667 -81 53c-30.667 -36.667 -67 -55 -109 -55c-27.333 0 -50.333 13.667 -69 41c-14.667 22 -22 43.333 -22 64
c0 18.667 5.33301 39.334 16 62.001c12.667 27.333 27 41 43 41c8 0 12 -6 12 -18c0 -5.33301 -0.666992 -13.666 -2 -24.999s-2 -19.666 -2 -24.999c0 -30 14 -45 42 -45s47.333 11 58 33c2.66699 5.33301 8.33398 27 17.001 65c2.66699 12 9.33398 18 20.001 18
s16.667 -6.66699 18 -20c7.33301 -67.333 27 -101 59 -101c30.667 0 46 16 46 48c0 13.333 -2.66699 29 -8 47l51 41c14.667 -22.667 22 -55.667 22 -99zM439.997 1906l-302 -124v79l302 119v-74z" />
    <glyph glyph-name="uniFC5E" unicode="&#x651;&#x64c;" horiz-adv-x="0" arabic-form="isolated" 
d="M444 1499c0 -34 -9.66992 -63.001 -29.0029 -87.001c-21.333 -25.333 -48.666 -38 -81.999 -38c-34.667 0 -61.667 17.667 -81 53c-31.333 -37.333 -67.666 -56 -108.999 -56c-24.667 0 -46 11.333 -64 34s-27 46.667 -27 72c0 18.667 5.33301 39.334 16 62.001
c12.667 27.333 27 41 43 41c8 0 12 -6 12 -18c0 -6 -0.666992 -14.5 -2 -25.5s-2 -19.5 -2 -25.5c0 -30 14 -45 42 -45s47.333 11 58 33c3.33301 7.33301 9 29 17 65c2.66699 12.667 9.33398 19 20.001 19s16.667 -7 18 -21c7.33301 -67.333 27 -101 59 -101
c30.667 0 46 16 46 48c0 13.333 -2.66699 29 -8 47l51 42c14.667 -24 22 -57 22 -99zM454.997 1931c0 -28 -21.667 -66.001 -65 -114.001c6.66699 -4 20.334 -9 41.001 -15l-35 -60c-30 5.33301 -55.667 15.666 -77 30.999c-72 -42.667 -135.333 -64 -190 -64
c-18.667 0 -38 22 -58 66c27.333 0 45.666 1.66699 54.999 5c14.667 16.667 22 33.334 22 50.001c0 17.333 -9 26 -27 26c-14.667 0 -30 -8.66699 -46 -26l-10 47c24 27.333 48.667 41 74 41c8.66699 0 17.334 -2 26.001 -6c23.333 -10.667 35 -31 35 -61
c0 -23.333 -7 -45.666 -21 -66.999c45.333 4 77.666 13.667 96.999 29c-22 37.333 -33 63 -33 77c0 30 20.333 60 61 90c34.667 25.333 61 38 79 38c48 0 72 -29 72 -87zM383.997 1921c0 19.333 -10.333 29 -31 29c-28 0 -42 -13.667 -42 -41c0 -22 11.333 -42.333 34 -61
c26 16 39 40.333 39 73z" />
    <glyph glyph-name="uniFC5F" unicode="&#x651;&#x64d;" horiz-adv-x="0" arabic-form="isolated" 
d="M462 1861c0 -34 -9.66992 -63.001 -29.0029 -87.001c-21.333 -25.333 -48.666 -38 -81.999 -38c-34.667 0 -61.667 17.667 -81 53c-31.333 -37.333 -67.666 -56 -108.999 -56c-24.667 0 -46 11.333 -64 34s-27 46.667 -27 72c0 18.667 5.33301 39.334 16 62.001
c12.667 27.333 27 41 43 41c8 0 12 -6 12 -18c0 -6 -0.666992 -14.5 -2 -25.5s-2 -19.5 -2 -25.5c0 -30 14 -45 42 -45s47.333 11 58 33c3.33301 7.33301 9 29 17 65c2.66699 12.667 9.33398 19 20.001 19s16.667 -7 18 -21c7.33301 -67.333 27 -101 59 -101
c30.667 0 46 16 46 48c0 13.333 -2.66699 29 -8 47l51 42c14.667 -24 22 -57 22 -99zM413.997 1600l-302 -123v78l302 120v-75zM413.997 1440l-302 -123v78l302 120v-75z" />
    <glyph glyph-name="uniFC60" unicode="&#x651;&#x64e;" horiz-adv-x="0" arabic-form="isolated" 
d="M463 1468c0 -34 -9.66992 -63.001 -29.0029 -87.001c-21.333 -25.333 -48.666 -38 -81.999 -38c-34.667 0 -61.667 17.667 -81 53c-31.333 -37.333 -67.666 -56 -108.999 -56c-24.667 0 -46 11.333 -64 34s-27 46.667 -27 72c0 18.667 5.33301 39.334 16 62.001
c12.667 27.333 27 41 43 41c8 0 12 -6 12 -18c0 -6 -0.666992 -14.5 -2 -25.5s-2 -19.5 -2 -25.5c0 -30 14 -45 42 -45s47.333 11 58 33c3.33301 7.33301 9 29 17 65c2.66699 12.667 9.33398 19 20.001 19s16.667 -7 18 -21c7.33301 -67.333 27 -101 59 -101
c30.667 0 46 16 46 48c0 13.333 -2.66699 29 -8 47l51 42c14.667 -24 22 -57 22 -99zM436.997 1797l-302 -124v79l302 119v-74z" />
    <glyph glyph-name="uniFC61" unicode="&#x651;&#x64f;" horiz-adv-x="0" arabic-form="isolated" 
d="M442 1445c0 -34 -9.66992 -63.0029 -29.0029 -87.0029c-21.333 -25.333 -48.666 -38 -81.999 -38c-34 0 -61 17.667 -81 53c-30.667 -36.667 -67 -55 -109 -55c-27.333 0 -50.333 13.667 -69 41c-14.667 22 -22 43.333 -22 64c0 18.667 5.33301 39.334 16 62.001
c12.667 27.333 27 41 43 41c8 0 12 -6 12 -18c0 -5.33301 -0.666992 -13.666 -2 -24.999s-2 -19.666 -2 -24.999c0 -30 14 -45 42 -45s47.333 11 58 33c2.66699 5.33301 8.33398 27 17.001 65c2.66699 12 9.33398 18 20.001 18s16.667 -6.66699 18 -20
c7.33301 -67.333 27 -101 59 -101c30.667 0 46 16 46 48c0 13.333 -2.66699 29 -8 47l51 41c14.667 -22.667 22 -55.667 22 -99zM434.997 1839c0 -28 -21.334 -65.667 -64.001 -113c6 -4.66699 19.333 -9.66699 40 -15l-34 -61c-31.333 6 -57 16.333 -77 31
c-75.333 -42.667 -138.666 -64 -189.999 -64c-20 0 -39.333 22.333 -58 67c57.333 1.33301 96 3.33301 116 6c40 5.33301 69.333 16 88 32c-21.333 38 -32 63.667 -32 77c0 29.333 20.333 59 61 89c34.667 26 60.667 39 78 39c22 0 40 -9.33301 54 -28
c12 -17.333 18 -37.333 18 -60zM363.996 1829c0 20 -10 30 -30 30c-10 0 -19.833 -4.33301 -29.5 -13s-14.5 -18 -14.5 -28c0 -22.667 11.667 -43 35 -61c26 16 39 40 39 72z" />
    <glyph glyph-name="uniFC62" unicode="&#x651;&#x650;" horiz-adv-x="0" arabic-form="isolated" 
d="M462 1673c0 -34 -9.66992 -63.001 -29.0029 -87.001c-21.333 -25.333 -48.666 -38 -81.999 -38c-34.667 0 -61.667 17.667 -81 53c-31.333 -37.333 -67.666 -56 -108.999 -56c-24.667 0 -46 11.333 -64 34s-27 46.667 -27 72c0 18.667 5.33301 39.334 16 62.001
c12.667 27.333 27 41 43 41c8 0 12 -6 12 -18c0 -6 -0.666992 -14.5 -2 -25.5s-2 -19.5 -2 -25.5c0 -30 14 -45 42 -45s47.333 11 58 33c3.33301 7.33301 9 29 17 65c2.66699 12.667 9.33398 19 20.001 19s16.667 -7 18 -21c7.33301 -67.333 27 -101 59 -101
c30.667 0 46 16 46 48c0 13.333 -2.66699 29 -8 47l51 42c14.667 -24 22 -57 22 -99zM413.997 1412l-302 -123v78l302 120v-75z" />
    <glyph glyph-name="uniFD3E" unicode="&#x652;&#x64e;" horiz-adv-x="1441" 
d="M1182 -711l-770 769h-232v233l-167 166l167 167v232h232l770 770l-204 -794v-210l165 -165l-165 -165v-210zM1095 -557l-165 636v231l147 147l-147 147v231l165 636l-663 -663h-204v-204l-147 -147l147 -147v-204h204zM975 1255l-104 -403h-300zM907 457l-94 -94v-140
h-137l-97 -97l-98 97h-138v137l-97 97l97 98v136h138l98 98l97 -98h137v-139zM975 -341l-404 404h300zM888 1101l-201 -201h148zM843 457l-78 78v108h-107l-79 80l-80 -80h-108v-108l-78 -78l78 -78v-108h108l80 -79l79 79h107v108zM888 -186l-53 201h-148z" />
    <glyph glyph-name="uniFDF2" unicode="&#xfedf;&#xfee0;&#xfeea;" arabic-form="isolated" 
d="M100 318c0 -60.667 16.667 -104.333 50 -131c31.333 -24.667 81.333 -37 150 -37v240c0 46 -11.667 87.667 -35 125c-35.333 56.667 -90.333 85 -165 85v-282zM218 0.000976562c-62.667 0 -114 20.998 -154 62.998c-42.667 45.333 -64 107.333 -64 186v451h200
c120 0 204.333 -37.333 253 -112c31.333 -48 47 -110.667 47 -188v-250c27.333 0 55 9.66699 83 29c31.333 22 47 45.667 47 71v1050l50 -50c39.333 -39.333 66.333 -78.666 81 -117.999c12.667 -34 19 -78 19 -132v-850c26.667 0 52.667 9.66699 78 29
c28 21.333 42 45 42 71v1050l100 -100c33.333 -33.333 56.333 -60.666 69 -81.999c20.667 -34.667 31 -74 31 -118v-1000h-882zM747 1547c0 -46 -7.16895 -79.6689 -21.502 -101.002s-37.166 -32 -68.499 -32c-12 0 -21.5 1 -28.5 3s-16.5 7.33301 -28.5 16
c-4 -20 -15.167 -38 -33.5 -54s-38.5 -24 -60.5 -24c-45.333 0 -68 28.333 -68 85c0 13.333 1.66699 28.666 5 45.999c1.33301 8 4.33301 21 9 39l21 4c0 -32.667 3.83301 -56 11.5 -70s18.5 -21 32.5 -21c20 0 35.833 11.167 47.5 33.5s19.834 56.833 24.501 103.5l16 5
l12 -53c6.66699 -20.667 20 -31 40 -31c24.667 0 40.667 12 48 36c4.66699 14.667 7 41.334 7 80.001l21 9c5.33301 -19.333 9 -33.666 11 -42.999s3 -19.666 3 -30.999z" />
    <glyph glyph-name="uniFEF5" unicode="&#xfedf;&#xfe82;" horiz-adv-x="1100" arabic-form="isolated" 
d="M820 1581c-6 -41.333 -13.335 -72.001 -22.002 -92.001c-27.333 -61.333 -73 -92 -137 -92h-139h-32.5c-10.333 0 -20.166 0.333008 -29.499 1c-28 0 -49 -3 -63 -9s-31 -20.667 -51 -44c8.66699 36 18.334 63 29.001 81c32 54 80 81 144 81h133c52 0 88.667 6 110 18
c8 4.66699 27.333 23.334 58 56.001zM1100 -0.000976562l-700.001 -0.000976562c-41.333 0 -87 25 -137 75c-16.667 16.667 -37.667 41.667 -63 75c105.333 0 197 22.667 275 68c83.333 48.667 125 109.334 125 182.001v700c0 41.333 16.667 87 50 137
c10.667 16.667 27.334 37.667 50.001 63v-800c0 -116 -10 -198.667 -30 -248c-15.333 -37.333 -45.333 -71.333 -90 -102h153c62 0 106 24.333 132 73c23.333 44 35 116.333 35 217v860l100 -100c32 -32 53 -54.667 63 -68c24.667 -33.333 37 -77.333 37 -132v-1000z" />
    <glyph glyph-name="uniFEF6" unicode="&#xfee0;&#xfe82;" horiz-adv-x="1200" arabic-form="final" 
d="M820 1581c-6 -41.333 -13.335 -72.001 -22.002 -92.001c-27.333 -61.333 -73 -92 -137 -92h-139h-32.5c-10.333 0 -20.166 0.333008 -29.499 1c-28 0 -49 -3 -63 -9s-31 -20.667 -51 -44c8.66699 36 18.334 63 29.001 81c32 54 80 81 144 81h133c52 0 88.667 6 110 18
c8 4.66699 27.333 23.334 58 56.001zM1250 -0.000976562l-850.001 -0.000976562c-41.333 0 -87 25 -137 75c-16.667 16.667 -37.667 41.667 -63 75c105.333 0 197 22.667 275 68c83.333 48.667 125 109.334 125 182.001v700c0 41.333 16.667 87 50 137
c10.667 16.667 27.334 37.667 50.001 63v-800c0 -116 -10 -198.667 -30 -248c-15.333 -37.333 -45.333 -71.333 -90 -102h153c62 0 106 24.333 132 73c23.333 44 35 116.333 35 217v860l100 -100c32 -32 53 -54.667 63 -68c24.667 -33.333 37 -77.333 37 -132v-850h150v-150
z" />
    <glyph glyph-name="uniFEF7" unicode="&#xfedf;&#xfe84;" horiz-adv-x="1100" arabic-form="isolated" 
d="M700 1351h-361.999v60h85c-9.33301 12 -16.333 22 -21 30c-14.667 25.333 -22 49 -22 71c0 39.333 16.333 71.333 49 96c38 28.667 93.333 43 166 43l55 1v-61h-44c-26 0 -50.167 -6.66699 -72.5 -20s-33.5 -30 -33.5 -50c0 -28 16.667 -53.333 50 -76
s66.666 -34 99.999 -34h50v-60zM1100 0l-700.001 -0.000976562c-41.333 0 -87 25 -137 75c-16.667 16.667 -37.667 41.667 -63 75c105.333 0 197 22.667 275 68c83.333 48.667 125 109.334 125 182.001v700c0 41.333 16.667 87 50 137
c10.667 16.667 27.334 37.667 50.001 63v-800c0 -116 -10 -198.667 -30 -248c-15.333 -37.333 -45.333 -71.333 -90 -102h153c62 0 106 24.333 132 73c23.333 44 35 116.333 35 217v860l100 -100c32 -32 53 -54.667 63 -68c24.667 -33.333 37 -77.333 37 -132v-1000z" />
    <glyph glyph-name="uniFEF8" unicode="&#xfee0;&#xfe84;" horiz-adv-x="1200" arabic-form="final" 
d="M700 1351h-361.999v60h85c-9.33301 12 -16.333 22 -21 30c-14.667 25.333 -22 49 -22 71c0 39.333 16.333 71.333 49 96c38 28.667 93.333 43 166 43l55 1v-61h-44c-26 0 -50.167 -6.66699 -72.5 -20s-33.5 -30 -33.5 -50c0 -28 16.667 -53.333 50 -76
s66.666 -34 99.999 -34h50v-60zM1250 0l-850.001 -0.000976562c-41.333 0 -87 25 -137 75c-16.667 16.667 -37.667 41.667 -63 75c105.333 0 197 22.667 275 68c83.333 48.667 125 109.334 125 182.001v700c0 41.333 16.667 87 50 137
c10.667 16.667 27.334 37.667 50.001 63v-800c0 -116 -10 -198.667 -30 -248c-15.333 -37.333 -45.333 -71.333 -90 -102h153c62 0 106 24.333 132 73c23.333 44 35 116.333 35 217v860l100 -100c32 -32 53 -54.667 63 -68c24.667 -33.333 37 -77.333 37 -132v-850h150v-150
z" />
    <glyph glyph-name="uniFEF9" unicode="&#xfedf;&#xfe88;" horiz-adv-x="1100" arabic-form="isolated" 
d="M850 -401h-361.999v60h85c-9.33301 12 -16.333 22 -21 30c-14.667 25.333 -22 49 -22 71c0 39.333 16.333 71.333 49 96c38 28.667 93.333 43 166 43l55 1v-61h-44c-26 0 -50.167 -6.66699 -72.5 -20s-33.5 -30 -33.5 -50c0 -28 16.667 -53.333 50 -76
s66.666 -34 99.999 -34h50v-60zM1100 0l-700.001 -0.000976562c-41.333 0 -87 25 -137 75c-16.667 16.667 -37.667 41.667 -63 75c105.333 0 197 22.667 275 68c83.333 48.667 125 109.334 125 182.001v700c0 41.333 16.667 87 50 137
c10.667 16.667 27.334 37.667 50.001 63v-800c0 -116 -10 -198.667 -30 -248c-15.333 -37.333 -45.333 -71.333 -90 -102h153c62 0 106 24.333 132 73c23.333 44 35 116.333 35 217v860l100 -100c32 -32 53 -54.667 63 -68c24.667 -33.333 37 -77.333 37 -132v-1000z" />
    <glyph glyph-name="uniFEFA" unicode="&#xfee0;&#xfe88;" horiz-adv-x="1200" arabic-form="final" 
d="M850 -401h-361.999v60h85c-9.33301 12 -16.333 22 -21 30c-14.667 25.333 -22 49 -22 71c0 39.333 16.333 71.333 49 96c38 28.667 93.333 43 166 43l55 1v-61h-44c-26 0 -50.167 -6.66699 -72.5 -20s-33.5 -30 -33.5 -50c0 -28 16.667 -53.333 50 -76
s66.666 -34 99.999 -34h50v-60zM1250 0l-850.001 -0.000976562c-41.333 0 -87 25 -137 75c-16.667 16.667 -37.667 41.667 -63 75c105.333 0 197 22.667 275 68c83.333 48.667 125 109.334 125 182.001v700c0 41.333 16.667 87 50 137
c10.667 16.667 27.334 37.667 50.001 63v-800c0 -116 -10 -198.667 -30 -248c-15.333 -37.333 -45.333 -71.333 -90 -102h153c62 0 106 24.333 132 73c23.333 44 35 116.333 35 217v860l100 -100c32 -32 53 -54.667 63 -68c24.667 -33.333 37 -77.333 37 -132v-850h150v-150
z" />
    <glyph glyph-name="uniFEFB" unicode="&#xfedf;&#xfe8e;" horiz-adv-x="1100" arabic-form="isolated" 
d="M1100 0l-700.001 -0.000976562c-41.333 0 -87 25 -137 75c-16.667 16.667 -37.667 41.667 -63 75c105.333 0 197 22.667 275 68c83.333 48.667 125 109.334 125 182.001v700c0 41.333 16.667 87 50 137c10.667 16.667 27.334 37.667 50.001 63v-800
c0 -116 -10 -198.667 -30 -248c-15.333 -37.333 -45.333 -71.333 -90 -102h153c62 0 106 24.333 132 73c23.333 44 35 116.333 35 217v860l100 -100c32 -32 53 -54.667 63 -68c24.667 -33.333 37 -77.333 37 -132v-1000z" />
    <glyph glyph-name="uniFEFC" unicode="&#xfee0;&#xfe8e;" horiz-adv-x="1200" arabic-form="final" 
d="M1250 0l-850.001 -0.000976562c-41.333 0 -87 25 -137 75c-16.667 16.667 -37.667 41.667 -63 75c105.333 0 197 22.667 275 68c83.333 48.667 125 109.334 125 182.001v700c0 41.333 16.667 87 50 137c10.667 16.667 27.334 37.667 50.001 63v-800
c0 -116 -10 -198.667 -30 -248c-15.333 -37.333 -45.333 -71.333 -90 -102h153c62 0 106 24.333 132 73c23.333 44 35 116.333 35 217v860l100 -100c32 -32 53 -54.667 63 -68c24.667 -33.333 37 -77.333 37 -132v-850h150v-150z" />
    <glyph glyph-name="afii57410" unicode="&#x622;" horiz-adv-x="400" arabic-form="isolated" 
d="M400 300c0 -46 -8.66602 -83.998 -25.999 -113.998c-10.667 -18.667 -35.334 -47.334 -74.001 -86.001l-100 -100v1000c0 55.333 11.667 98.666 35 129.999c9.33301 12.667 31 36 65 70l100 100v-1000zM600.001 1603c-6 -41.333 -13.335 -72.001 -22.002 -92.001
c-27.333 -61.333 -73 -92 -137 -92h-139h-32.5c-10.333 0 -20.166 0.333008 -29.499 1c-28 0 -49 -3 -63 -9s-31 -20.667 -51 -44c8.66699 36 18.334 63 29.001 81c32 54 80 81 144 81h133c52 0 88.667 6 110 18c8 4.66699 27.333 23.334 58 56.001z" />
    <glyph glyph-name="afii57411" unicode="&#x623;" horiz-adv-x="400" arabic-form="isolated" 
d="M400 300c0 -46 -8.66602 -83.998 -25.999 -113.998c-10.667 -18.667 -35.334 -47.334 -74.001 -86.001l-100 -100v1000c0 55.333 11.667 98.666 35 129.999c9.33301 12.667 31 36 65 70l100 100v-1000zM500.001 1360h-361.999v60h85c-9.33301 12 -16.333 22 -21 30
c-14.667 25.333 -22 49 -22 71c0 39.333 16.333 71.333 49 96c38 28.667 93.333 43 166 43l55 1v-61h-44c-26 0 -50.167 -6.66699 -72.5 -20s-33.5 -30 -33.5 -50c0 -28 16.667 -53.333 50 -76s66.666 -34 99.999 -34h50v-60z" />
    <glyph glyph-name="afii57412" unicode="&#x624;" horiz-adv-x="900" arabic-form="isolated" 
d="M700 150l0.000976562 150c0 50 -20.833 95.833 -62.5 137.5s-87.5 62.5 -137.5 62.5c-52.667 0 -98.334 -16 -137.001 -48c-42 -34.667 -63 -78.667 -63 -132c0 -59.333 30 -102.5 90 -129.5s163.333 -40.5 310 -40.5zM700.001 0h-200
c-92.667 -0 -167.667 33.333 -225 100c-50 58.667 -75 124.667 -75 198c0 82 25 151.333 75 208c55.333 62.667 130.333 94 225 94c121.333 0 218.333 -32.5 291 -97.5s109 -149.167 109 -252.5v-250c0 -112.667 -33.333 -203 -100 -271c-84 -86 -217.333 -129 -400 -129
h-200v100h200c72 0 141.333 32.333 208 97c61.333 59.333 92 113.333 92 162v41zM662.001 700h-361.999v60h85c-9.33301 12 -16.333 22 -21 30c-14.667 25.333 -22 49 -22 71c0 39.333 16.333 71.333 49 96c38 28.667 93.333 43 166 43l55 1v-61h-44
c-26 0 -50.167 -6.66699 -72.5 -20s-33.5 -30 -33.5 -50c0 -28 16.667 -53.333 50 -76s66.666 -34 99.999 -34h50v-60z" />
    <glyph glyph-name="afii57413" unicode="&#x625;" horiz-adv-x="400" arabic-form="isolated" 
d="M400 300c0 -46 -8.66602 -83.998 -25.999 -113.998c-10.667 -18.667 -35.334 -47.334 -74.001 -86.001l-100 -100v1000c0 55.333 11.667 98.666 35 129.999c9.33301 12.667 31 36 65 70l100 100v-1000zM450.001 -400.998h-361.999v60h85c-9.33301 12 -16.333 22 -21 30
c-14.667 25.333 -22 49 -22 71c0 39.333 16.333 71.333 49 96c38 28.667 93.333 43 166 43l55 1v-61h-44c-26 0 -50.167 -6.66699 -72.5 -20s-33.5 -30 -33.5 -50c0 -28 16.667 -53.333 50 -76s66.666 -34 99.999 -34h50v-60z" />
    <glyph glyph-name="afii57414" unicode="&#x626;" arabic-form="isolated" 
d="M800 -100c0 15.333 -34.334 41.999 -103.001 79.999c-92 50.667 -156.333 92 -193 124c-69.333 60.667 -104 126 -104 196c0 134.667 62.333 237.334 187 308.001c108 61.333 245.667 92 413 92h100v-100c-62.667 0 -126.334 -5 -191.001 -15
c-87.333 -13.333 -157.333 -33.333 -210 -60c-66 -33.333 -99 -75 -99 -125c0 -34 34.333 -72.667 103 -116l193 -120c69.333 -52.667 104 -107.334 104 -164.001c0 -118 -47.333 -207.333 -142 -268c-85.333 -54.667 -200.666 -82 -345.999 -82
c-141.333 0 -254.666 40 -339.999 120c-66.667 62.667 -114.334 147.334 -143.001 254.001c-19.333 72 -29 147.333 -29 226v50h100c0 -132 21.667 -242 65 -330c36.667 -75.333 88.334 -132.333 155.001 -171c56 -32.667 116 -49 180 -49c84 0 157.667 20.667 221 62
c52.667 34 79 63.333 79 88zM361.999 557.999h-361.999v60h85c-9.33301 12 -16.333 22 -21 30c-14.667 25.333 -22 49 -22 71c0 39.333 16.333 71.333 49 96c38 28.667 93.333 43 166 43l55 1v-61h-44c-26 0 -50.167 -6.66699 -72.5 -20s-33.5 -30 -33.5 -50
c0 -28 16.667 -53.333 50 -76s66.666 -34 99.999 -34h50v-60z" />
    <glyph glyph-name="afii57415" unicode="&#x627;" horiz-adv-x="400" arabic-form="isolated" 
d="M400 300c0 -46 -8.66602 -83.998 -25.999 -113.998c-10.667 -18.667 -35.334 -47.334 -74.001 -86.001l-100 -100v1000c0 55.333 11.667 98.666 35 129.999c9.33301 12.667 31 36 65 70l100 100v-1000z" />
    <glyph glyph-name="afii57416" unicode="&#x628;" horiz-adv-x="1200" arabic-form="isolated" 
d="M700 -200c0 -28 -9.66699 -51.667 -29 -71s-43 -29 -71 -29s-51.667 9.66699 -71 29s-29 43 -29 71s9.66699 51.667 29 71s43 29 71 29s51.667 -9.66699 71 -29s29 -43 29 -71zM300 0c-98 0 -172.499 24.499 -223.499 73.499s-76.5 116.5 -76.5 202.5
c0 62 21.333 120.333 64 175c35.333 44.667 78.666 81.667 129.999 111c44.667 25.333 80 38 106 38l70 -70c-44.667 0 -98.667 -23 -162 -69c-72 -52 -108 -105.667 -108 -161s26.333 -94.666 79 -117.999c48 -21.333 121.667 -32 221 -32h500c26.667 0 50 10.333 70 31
s30 43.667 30 69v350l100 -100c33.333 -33.333 56 -60 68 -80c21.333 -35.333 32 -75.333 32 -120v-300h-900z" />
    <glyph glyph-name="afii57417" unicode="&#x629;" horiz-adv-x="600" arabic-form="isolated" 
d="M100 600l-0.000976562 -282.001c0 -61.333 15.833 -104.666 47.5 -129.999s81.834 -38 150.501 -38h102v240c0 46 -11.667 87.667 -35 125c-35.333 56.667 -90.333 85 -165 85h-100zM217.999 -0.000976562c-62.667 0 -114 21 -154 63c-42.667 45.333 -64 107.333 -64 186
v451h300c120 0 204.333 -37.333 253 -112c31.333 -48 47 -110.667 47 -188v-400h-382zM366.999 869.999h-361.999v60h85c-9.33301 12 -16.333 22 -21 30c-14.667 25.333 -22 49 -22 71c0 39.333 16.333 71.333 49 96c38 28.667 93.333 43 166 43l55 1v-61h-44
c-26 0 -50.167 -6.66699 -72.5 -20s-33.5 -30 -33.5 -50c0 -28 16.667 -53.333 50 -76s66.666 -34 99.999 -34h50v-60z" />
    <glyph glyph-name="afii57418" unicode="&#x62a;" horiz-adv-x="1200" arabic-form="isolated" 
d="M866 700c0 -28 -9.66699 -51.667 -29 -71s-43 -29 -71 -29s-51.667 9.66699 -71 29s-29 43 -29 71s9.66699 51.667 29 71s43 29 71 29s51.667 -9.66699 71 -29s29 -43 29 -71zM626 700c0 -28 -9.66699 -51.667 -29 -71s-43 -29 -71 -29s-51.667 9.66699 -71 29
s-29 43 -29 71s9.66699 51.667 29 71s43 29 71 29s51.667 -9.66699 71 -29s29 -43 29 -71zM300 0c-98 0 -172.499 24.499 -223.499 73.499s-76.5 116.5 -76.5 202.5c0 62 21.333 120.333 64 175c35.333 44.667 78.666 81.667 129.999 111c44.667 25.333 80 38 106 38l70 -70
c-44.667 0 -98.667 -23 -162 -69c-72 -52 -108 -105.667 -108 -161s26.333 -94.666 79 -117.999c48 -21.333 121.667 -32 221 -32h500c26.667 0 50 10.333 70 31s30 43.667 30 69v350l100 -100c33.333 -33.333 56 -60 68 -80c21.333 -35.333 32 -75.333 32 -120v-300h-900z
" />
    <glyph glyph-name="afii57419" unicode="&#x62b;" horiz-adv-x="1200" arabic-form="isolated" 
d="M300 0c-98 0 -172.499 24.499 -223.499 73.499s-76.5 116.5 -76.5 202.5c0 62 21.333 120.333 64 175c35.333 44.667 78.666 81.667 129.999 111c44.667 25.333 80 38 106 38l70 -70c-44.667 0 -98.667 -23 -162 -69c-72 -52 -108 -105.667 -108 -161
s26.333 -94.666 79 -117.999c48 -21.333 121.667 -32 221 -32h500c26.667 0 50 10.333 70 31s30 43.667 30 69v350l100 -100c33.333 -33.333 56 -60 68 -80c21.333 -35.333 32 -75.333 32 -120v-300h-900zM736.001 955.999c0 -28 -9.66699 -51.667 -29 -71s-43 -29 -71 -29
s-51.667 9.66699 -71 29s-29 43 -29 71s9.66699 51.667 29 71s43 29 71 29s51.667 -9.66699 71 -29s29 -43 29 -71zM858.001 699.999c0 -28 -9.66699 -51.667 -29 -71s-43 -29 -71 -29s-51.667 9.66699 -71 29s-29 43 -29 71s9.66699 51.667 29 71s43 29 71 29
s51.667 -9.66699 71 -29s29 -43 29 -71zM618.001 699.999c0 -28 -9.66699 -51.667 -29 -71s-43 -29 -71 -29s-51.667 9.66699 -71 29s-29 43 -29 71s9.66699 51.667 29 71s43 29 71 29s51.667 -9.66699 71 -29s29 -43 29 -71z" />
    <glyph glyph-name="afii57420" unicode="&#x62c;" arabic-form="isolated" 
d="M700 -220c0 -28 -9.66699 -51.667 -29 -71s-43 -29 -71 -29s-51.667 9.66699 -71 29s-29 43 -29 71s9.66699 51.667 29 71s43 29 71 29s51.667 -9.66699 71 -29s29 -43 29 -71zM600 0c-95.333 0 -194.667 -33.332 -298 -99.999c-99.333 -64 -149 -122 -149 -174
c6.66699 -36.667 19 -65.334 37 -86.001c28.667 -32.667 77.667 -58 147 -76c88 -22.667 207.333 -34 358 -34h405v-100h-600c-81.333 0 -154 7.33301 -218 22c-84 19.333 -149.333 50 -196 92c-57.333 52 -86 119.333 -86 202v45c-0 86.667 54.333 168.167 163 244.5
s221 114.5 337 114.5h350v34c0 90.667 -33 163.667 -99 219c-77.333 64.667 -194.333 97 -351 97h-200v100h300c230.667 0 393 -43.667 487 -131c75.333 -70 113 -176.333 113 -319v-150h-500z" />
    <glyph glyph-name="afii57421" unicode="&#x62d;" arabic-form="isolated" 
d="M600 0c-95.333 0 -194.667 -33.332 -298 -99.999c-99.333 -64 -149 -122 -149 -174c6.66699 -36.667 19 -65.334 37 -86.001c28.667 -32.667 77.667 -58 147 -76c88 -22.667 207.333 -34 358 -34h405v-100h-600c-81.333 0 -154 7.33301 -218 22
c-84 19.333 -149.333 50 -196 92c-57.333 52 -86 119.333 -86 202v45c-0 86.667 54.333 168.167 163 244.5s221 114.5 337 114.5h350v34c0 90.667 -33 163.667 -99 219c-77.333 64.667 -194.333 97 -351 97h-200v100h300c230.667 0 393 -43.667 487 -131
c75.333 -70 113 -176.333 113 -319v-150h-500z" />
    <glyph glyph-name="afii57422" unicode="&#x62e;" arabic-form="isolated" 
d="M600 0c-95.333 0 -194.667 -33.332 -298 -99.999c-99.333 -64 -149 -122 -149 -174c6.66699 -36.667 19 -65.334 37 -86.001c28.667 -32.667 77.667 -58 147 -76c88 -22.667 207.333 -34 358 -34h405v-100h-600c-81.333 0 -154 7.33301 -218 22
c-84 19.333 -149.333 50 -196 92c-57.333 52 -86 119.333 -86 202v45c-0 86.667 54.333 168.167 163 244.5s221 114.5 337 114.5h350v34c0 90.667 -33 163.667 -99 219c-77.333 64.667 -194.333 97 -351 97h-200v100h300c230.667 0 393 -43.667 487 -131
c75.333 -70 113 -176.333 113 -319v-150h-500zM599.999 910.001c0 -28 -9.66699 -51.667 -29 -71s-43 -29 -71 -29s-51.667 9.66699 -71 29s-29 43 -29 71s9.66699 51.667 29 71s43 29 71 29s51.667 -9.66699 71 -29s29 -43 29 -71z" />
    <glyph glyph-name="afii57423" unicode="&#x62f;" horiz-adv-x="1200" arabic-form="isolated" 
d="M1200 0l-1000 0.00195312v150h800v170c0 41.333 -21 81.666 -63 120.999s-87.667 59 -137 59h-500v100h580c108.667 0 189.167 -24.833 241.5 -74.5s78.5 -124.834 78.5 -225.501v-300z" />
    <glyph glyph-name="afii57424" unicode="&#x630;" horiz-adv-x="1200" arabic-form="isolated" 
d="M1200 0l-1000 0.00195312v150h800v170c0 41.333 -21 81.666 -63 120.999s-87.667 59 -137 59h-500v100h580c108.667 0 189.167 -24.833 241.5 -74.5s78.5 -124.834 78.5 -225.501v-300zM400 902.002c0 -28 -9.66699 -51.667 -29 -71s-43 -29 -71 -29
s-51.667 9.66699 -71 29s-29 43 -29 71s9.66699 51.667 29 71s43 29 71 29s51.667 -9.66699 71 -29s29 -43 29 -71z" />
    <glyph glyph-name="afii57425" unicode="&#x631;" horiz-adv-x="600" arabic-form="isolated" 
d="M400 300c0 35.333 5.83301 66.668 17.5 94.001s39.167 62.666 82.5 105.999l100 100v-600c0 -129.333 -41.667 -230.333 -125 -303c-74 -64.667 -165.667 -97 -275 -97h-200v100h100c82 0 151 25 207 75c62 55.333 93 130.333 93 225v300z" />
    <glyph glyph-name="afii57426" unicode="&#x632;" horiz-adv-x="600" arabic-form="isolated" 
d="M500 892c0 -28 -9.66699 -51.667 -29 -71s-43 -29 -71 -29s-51.667 9.66699 -71 29s-29 43 -29 71s9.66699 51.667 29 71s43 29 71 29s51.667 -9.66699 71 -29s29 -43 29 -71zM400 300c0 35.333 5.83301 66.668 17.5 94.001s39.167 62.666 82.5 105.999l100 100v-600
c0 -129.333 -41.667 -230.333 -125 -303c-74 -64.667 -165.667 -97 -275 -97h-200v100h100c82 0 151 25 207 75c62 55.333 93 130.333 93 225v300z" />
    <glyph glyph-name="afii57427" unicode="&#x633;" horiz-adv-x="1760" arabic-form="isolated" 
d="M1100 0c-53.333 0 -109 -34.333 -167 -103c-101.333 -120 -157 -184.333 -167 -193c-78 -69.333 -166.667 -104 -266 -104c-153.333 0 -274 55.333 -362 166c-92 115.333 -138 276.666 -138 483.999h100c0 -156 32.667 -284 98 -384
c72.667 -110.667 173.334 -166 302.001 -166c85.333 0 156.666 32.833 213.999 98.5s86 143.167 86 232.5v169c0 46.667 7.33301 83.334 22 110.001c10 18 36 48 78 90l100 100v-350h100c28 0 51.667 9.66699 71 29s29 43 29 71v250l100 100v-450h100
c29.333 0 53.333 8.66699 72 26s28 42 28 74v350l100 100v-700h-500z" />
    <glyph glyph-name="afii57428" unicode="&#x634;" horiz-adv-x="1760" arabic-form="isolated" 
d="M1100 0c-53.333 0 -109 -34.333 -167 -103c-101.333 -120 -157 -184.333 -167 -193c-78 -69.333 -166.667 -104 -266 -104c-153.333 0 -274 55.333 -362 166c-92 115.333 -138 276.666 -138 483.999h100c0 -156 32.667 -284 98 -384
c72.667 -110.667 173.334 -166 302.001 -166c85.333 0 156.666 32.833 213.999 98.5s86 143.167 86 232.5v169c0 46.667 7.33301 83.334 22 110.001c10 18 36 48 78 90l100 100v-350h100c28 0 51.667 9.66699 71 29s29 43 29 71v250l100 100v-450h100
c29.333 0 53.333 8.66699 72 26s28 42 28 74v350l100 100v-700h-500zM1363 1056c0 -28 -9.66699 -51.667 -29 -71s-43 -29 -71 -29s-51.667 9.66699 -71 29s-29 43 -29 71s9.66699 51.667 29 71s43 29 71 29s51.667 -9.66699 71 -29s29 -43 29 -71zM1485 800
c0 -28 -9.66699 -51.667 -29 -71s-43 -29 -71 -29s-51.667 9.66699 -71 29s-29 43 -29 71s9.66699 51.667 29 71s43 29 71 29s51.667 -9.66699 71 -29s29 -43 29 -71zM1245 800c0 -28 -9.66699 -51.667 -29 -71s-43 -29 -71 -29s-51.667 9.66699 -71 29s-29 43 -29 71
s9.66699 51.667 29 71s43 29 71 29s51.667 -9.66699 71 -29s29 -43 29 -71z" />
    <glyph glyph-name="afii57429" unicode="&#x635;" horiz-adv-x="1900" arabic-form="isolated" 
d="M1900 0h-799.999c-53.333 0 -109 -34.333 -167 -103c-101.333 -120 -157 -184.333 -167 -193c-78 -69.333 -166.667 -104 -266 -104c-153.333 0 -274 55.333 -362 166c-92 115.333 -138 276.666 -138 483.999h100c0 -156 32.667 -284 98 -384
c72.667 -110.667 173.334 -166 302.001 -166c85.333 0 156.666 32.833 213.999 98.5s86 143.167 86 232.5v269c0 46.667 7.33301 83.334 22 110.001c10 18 36 48 78 90l100 100v-409l100 100c106.667 106.667 197 183.667 271 231c81.333 52 157.666 78 228.999 78
c82.667 0 152 -25 208 -75c61.333 -55.333 92 -130.333 92 -225v-300zM1750 250l0.000976562 47c0 57.333 -14.833 105.5 -44.5 144.5s-64.834 58.5 -105.501 58.5c-52 0 -109.167 -19.167 -171.5 -57.5s-138.5 -102.5 -228.5 -192.5l-100 -100h500
c100 0 150 33.333 150 100z" />
    <glyph glyph-name="afii57430" unicode="&#x636;" horiz-adv-x="1900" arabic-form="isolated" 
d="M1400 800c0 -28 -9.66699 -51.667 -29 -71s-43 -29 -71 -29s-51.667 9.66699 -71 29s-29 43 -29 71s9.66699 51.667 29 71s43 29 71 29s51.667 -9.66699 71 -29s29 -43 29 -71zM1900 0h-799.999c-53.333 0 -109 -34.333 -167 -103c-101.333 -120 -157 -184.333 -167 -193
c-78 -69.333 -166.667 -104 -266 -104c-153.333 0 -274 55.333 -362 166c-92 115.333 -138 276.666 -138 483.999h100c0 -156 32.667 -284 98 -384c72.667 -110.667 173.334 -166 302.001 -166c85.333 0 156.666 32.833 213.999 98.5s86 143.167 86 232.5v269
c0 46.667 7.33301 83.334 22 110.001c10 18 36 48 78 90l100 100v-409l100 100c106.667 106.667 197 183.667 271 231c81.333 52 157.666 78 228.999 78c82.667 0 152 -25 208 -75c61.333 -55.333 92 -130.333 92 -225v-300zM1750 250l0.000976562 47
c0 57.333 -14.833 105.5 -44.5 144.5s-64.834 58.5 -105.501 58.5c-52 0 -109.167 -19.167 -171.5 -57.5s-138.5 -102.5 -228.5 -192.5l-100 -100h500c100 0 150 33.333 150 100z" />
    <glyph glyph-name="afii57431" unicode="&#x637;" horiz-adv-x="1400" arabic-form="isolated" 
d="M1250 250l0.000976562 47c0 57.333 -14.833 105.5 -44.5 144.5s-64.834 58.5 -105.501 58.5c-52 0 -109.167 -19.167 -171.5 -57.5s-138.5 -102.5 -228.5 -192.5l-100 -100h500c100 0 150 33.333 150 100zM600.001 291l186 181.001c64.667 60 119 103 163 129
c54.667 32.667 105 49 151 49c103.333 0 178.333 -25.667 225 -77c50 -55.333 75 -146.333 75 -273v-300h-1100c-60 0 -115.333 12.667 -166 38c-37.333 18.667 -70.666 42.667 -99.999 72l-34 40h400v1150l100 -100c33.333 -33.333 54.666 -56.333 63.999 -69
c24 -32.667 36 -76.334 36 -131.001v-709z" />
    <glyph glyph-name="afii57432" unicode="&#x638;" horiz-adv-x="1400" arabic-form="isolated" 
d="M900 800c0 -28 -9.66699 -51.667 -29 -71s-43 -29 -71 -29s-51.667 9.66699 -71 29s-29 43 -29 71s9.66699 51.667 29 71s43 29 71 29s51.667 -9.66699 71 -29s29 -43 29 -71zM1250 250l0.000976562 47c0 57.333 -14.833 105.5 -44.5 144.5s-64.834 58.5 -105.501 58.5
c-52 0 -109.167 -19.167 -171.5 -57.5s-138.5 -102.5 -228.5 -192.5l-100 -100h500c100 0 150 33.333 150 100zM600.001 291l186 181.001c64.667 60 119 103 163 129c54.667 32.667 105 49 151 49c103.333 0 178.333 -25.667 225 -77c50 -55.333 75 -146.333 75 -273v-300
h-1100c-60 0 -115.333 12.667 -166 38c-37.333 18.667 -70.666 42.667 -99.999 72l-34 40h400v1150l100 -100c33.333 -33.333 54.666 -56.333 63.999 -69c24 -32.667 36 -76.334 36 -131.001v-709z" />
    <glyph glyph-name="afii57433" unicode="&#x639;" arabic-form="isolated" 
d="M620 0c-112 0 -211.336 -20.668 -298.003 -62.001c-69.333 -32.667 -125.333 -75.334 -168 -128.001c-36 -44 -54 -80.667 -54 -110c0 -20.667 11.667 -41 35 -61c36 -30.667 94.667 -55 176 -73c107.333 -24 246.666 -36 417.999 -36h371l-100 -100h-360
c-157.333 0 -275.333 5.66699 -354 17c-98 14 -169.333 40.333 -214 79c-48 41.333 -72 102 -72 182v98c0 83.333 26 159 78 227c20.667 26.667 61.334 65.667 122.001 117v250c0 86.667 25 157.334 75 212.001c54 58.667 129 88 225 88s182 -19.333 258 -58
c70.667 -36 122.667 -83.333 156 -142h-114c-24 29.333 -60.333 54 -109 74c-42.667 17.333 -80.667 26 -114 26c-43.333 0 -82.333 -12.667 -117 -38c-40 -29.333 -60 -66.666 -60 -111.999v-50c0 -80 30.333 -141.667 91 -185s144.334 -65 251.001 -65h258
c-15.333 -33.333 -29.666 -58.333 -42.999 -75c-41.333 -50 -93.666 -75 -156.999 -75h-180z" />
    <glyph glyph-name="afii57434" unicode="&#x63a;" arabic-form="isolated" 
d="M600 949c0 -28 -9.66699 -51.667 -29 -71s-43 -29 -71 -29s-51.667 9.66699 -71 29s-29 43 -29 71s9.66699 51.667 29 71s43 29 71 29s51.667 -9.66699 71 -29s29 -43 29 -71zM620 0c-112 0 -211.336 -20.668 -298.003 -62.001
c-69.333 -32.667 -125.333 -75.334 -168 -128.001c-36 -44 -54 -80.667 -54 -110c0 -20.667 11.667 -41 35 -61c36 -30.667 94.667 -55 176 -73c107.333 -24 246.666 -36 417.999 -36h371l-100 -100h-360c-157.333 0 -275.333 5.66699 -354 17
c-98 14 -169.333 40.333 -214 79c-48 41.333 -72 102 -72 182v98c0 83.333 26 159 78 227c20.667 26.667 61.334 65.667 122.001 117v250c0 86.667 25 157.334 75 212.001c54 58.667 129 88 225 88s182 -19.333 258 -58c70.667 -36 122.667 -83.333 156 -142h-114
c-24 29.333 -60.333 54 -109 74c-42.667 17.333 -80.667 26 -114 26c-43.333 0 -82.333 -12.667 -117 -38c-40 -29.333 -60 -66.666 -60 -111.999v-50c0 -80 30.333 -141.667 91 -185s144.334 -65 251.001 -65h258c-15.333 -33.333 -29.666 -58.333 -42.999 -75
c-41.333 -50 -93.666 -75 -156.999 -75h-180z" />
    <glyph glyph-name="afii57441" unicode="&#x641;" horiz-adv-x="1400" arabic-form="isolated" 
d="M1200 150v150c0 50 -20.833 95.833 -62.5 137.5s-87.5 62.5 -137.5 62.5c-58 0 -103.667 -9.33301 -137 -28c-42 -24 -63 -61.333 -63 -112c0 -66.667 44.667 -119.667 134 -159c77.333 -34 166 -51 266 -51zM800 800c0 28 9.66699 51.667 29 71s43 29 71 29
s51.667 -9.66699 71 -29s29 -43 29 -71s-9.66699 -51.667 -29 -71s-43 -29 -71 -29s-51.667 9.66699 -71 29s-29 43 -29 71zM300 0c-98 0 -172.498 24.498 -223.498 73.498s-76.5 116.5 -76.5 202.5c0 62 21.333 120.333 64 175c35.333 44.667 78.666 81.667 129.999 111
c44.667 25.333 80 38 106 38l70 -70c-44.667 0 -98.667 -23 -162 -69c-72 -52 -108 -105.667 -108 -161s26.333 -94.666 79 -117.999c48 -21.333 121.667 -32 221 -32h400c-22.667 16.667 -39.334 31.667 -50.001 45c-33.333 41.333 -50 89 -50 143
c0 78.667 25 141.334 75 188.001c53.333 49.333 128.333 74 225 74c121.333 0 218.333 -32.5 291 -97.5s109 -149.167 109 -252.5v-250h-1100z" />
    <glyph glyph-name="afii57442" unicode="&#x642;" arabic-form="isolated" 
d="M800 150l0.000976562 150c0 50 -20.833 95.833 -62.5 137.5s-87.5 62.5 -137.5 62.5c-52.667 0 -98.334 -16 -137.001 -48c-42 -34.667 -63 -78.667 -63 -132c0 -59.333 30 -102.5 90 -129.5s163.333 -40.5 310 -40.5zM800.001 800c0 -28 -9.66699 -51.667 -29 -71
s-43 -29 -71 -29s-51.667 9.66699 -71 29s-29 43 -29 71s9.66699 51.667 29 71s43 29 71 29s51.667 -9.66699 71 -29s29 -43 29 -71zM560.001 800c0 -28 -9.66699 -51.667 -29 -71s-43 -29 -71 -29s-51.667 9.66699 -71 29s-29 43 -29 71s9.66699 51.667 29 71s43 29 71 29
s51.667 -9.66699 71 -29s29 -43 29 -71zM800.001 0h-200c-92.667 -0 -167.667 33.333 -225 100c-50 58.667 -75 124.667 -75 198c0 82 25 151.333 75 208c55.333 62.667 130.333 94 225 94c121.333 0 218.333 -32.5 291 -97.5s109 -149.167 109 -252.5v-250
c0 -106 -39.667 -196.333 -119 -271c-91.333 -86 -218.333 -129 -381 -129c-156 0 -276.667 52 -362 156c-92 112 -138 276.667 -138 494h100c0 -152 35.333 -280 106 -384c75.333 -110.667 173.333 -166 294 -166c79.333 0 151 32.333 215 97
c56.667 57.333 85 111.333 85 162v41z" />
    <glyph glyph-name="afii57443" unicode="&#x643;" horiz-adv-x="1200" arabic-form="isolated" 
d="M1000 833l100.001 -100.001c33.333 -33.333 56 -60 68 -80c21.333 -35.333 32 -75.333 32 -120v-533h-900c-98 0 -172.5 24.5 -223.5 73.5s-76.5 116.5 -76.5 202.5c0 62 21.333 120.333 64 175c35.333 44.667 78.666 81.667 129.999 111c44.667 25.333 80 38 106 38
l70 -70c-44.667 0 -98.667 -23 -162 -69c-72 -52 -108 -105.667 -108 -161s26.333 -94.666 79 -117.999c48 -21.333 121.667 -32 221 -32h500c26.667 0 50 10.333 70 31s30 43.667 30 69l-3 483h-507v119l447 445h168l-465 -464h360z" />
    <glyph glyph-name="afii57444" unicode="&#x644;" arabic-form="isolated" 
d="M1000 0c0 -125.333 -39.667 -222.001 -119 -290.001c-85.333 -73.333 -212.333 -110 -381 -110c-156 0 -276.667 52 -362 156c-92 112 -138 276.667 -138 494h100c0 -152 35.333 -280 106 -384c75.333 -110.667 173.333 -166 294 -166c81.333 0 153 30.667 215 92
c56.667 56 85 111.667 85 167v1341l100 -100c33.333 -33.333 56.333 -60.666 69 -81.999c20.667 -34.667 31 -74 31 -118v-1000z" />
    <glyph glyph-name="afii57445" unicode="&#x645;" horiz-adv-x="900" arabic-form="isolated" 
d="M150 19l-0.00195312 -318.998c0 -64 -12.667 -118.667 -38 -164c-18.667 -33.333 -42.667 -61 -72 -83c-20.667 -15.333 -34 -23 -40 -23v656c0 71.333 9.33301 128.666 28 171.999c25.333 59.333 66.333 89 123 89c37.333 0 73.333 -7.66699 108 -23
c11.333 -4.66699 25 -12.667 41 -24v30c0 83.333 27.833 149.166 83.5 197.499s127.834 72.5 216.501 72.5h100c54.667 0 100.334 -16 137.001 -48c42 -36.667 63 -88 63 -154v-398h-300c-65.333 0 -131.333 15.667 -198 47l-171 103c-17.333 0 -34 -9.33301 -50 -28
c-20.667 -24 -31 -58.333 -31 -103zM699.998 150.002v210c0 44 -7.5 78.333 -22.5 103s-31.167 37 -48.5 37h-67c-46 0 -84.5 -19.333 -115.5 -58s-46.5 -80.667 -46.5 -126v-78c22.667 -20 41.667 -34.667 57 -44c47.333 -29.333 95 -44 143 -44h100z" />
    <glyph glyph-name="afii57446" unicode="&#x646;" arabic-form="isolated" 
d="M600 600c0 -28 -9.66699 -51.667 -29 -71s-43 -29 -71 -29s-51.667 9.66699 -71 29s-29 43 -29 71s9.66699 51.667 29 71s43 29 71 29s51.667 -9.66699 71 -29s29 -43 29 -71zM500 -400c-153.333 0 -274 55.333 -362 166c-92 115.333 -138 276.666 -138 483.999h100
c0 -156 32.667 -284 98 -384c72.667 -110.667 173.334 -166 302.001 -166c85.333 0 156.666 32.833 213.999 98.5s86 143.167 86 232.5v269c0 46.667 7.33301 83.334 22 110.001c10 18 36 48 78 90l100 100v-450c0 -168 -39.667 -299.667 -119 -395
c-86 -103.333 -213 -155 -381 -155z" />
    <glyph glyph-name="afii57470" unicode="&#x647;" horiz-adv-x="600" arabic-form="isolated" 
d="M100 600l-0.000976562 -282.001c0 -61.333 15.833 -104.666 47.5 -129.999s81.834 -38 150.501 -38h102v240c0 46 -11.667 87.667 -35 125c-35.333 56.667 -90.333 85 -165 85h-100zM217.999 -0.000976562c-62.667 0 -114 21 -154 63c-42.667 45.333 -64 107.333 -64 186
v451h300c120 0 204.333 -37.333 253 -112c31.333 -48 47 -110.667 47 -188v-400h-382z" />
    <glyph glyph-name="afii57448" unicode="&#x648;" horiz-adv-x="900" arabic-form="isolated" 
d="M700 150l0.000976562 150c0 50 -20.833 95.833 -62.5 137.5s-87.5 62.5 -137.5 62.5c-52.667 0 -98.334 -16 -137.001 -48c-42 -34.667 -63 -78.667 -63 -132c0 -59.333 30 -102.5 90 -129.5s163.333 -40.5 310 -40.5zM700.001 0h-200
c-92.667 -0 -167.667 33.333 -225 100c-50 58.667 -75 124.667 -75 198c0 82 25 151.333 75 208c55.333 62.667 130.333 94 225 94c121.333 0 218.333 -32.5 291 -97.5s109 -149.167 109 -252.5v-250c0 -112.667 -33.333 -203 -100 -271c-84 -86 -217.333 -129 -400 -129
h-200v100h200c72 0 141.333 32.333 208 97c61.333 59.333 92 113.333 92 162v41z" />
    <glyph glyph-name="afii57449" unicode="&#x649;" arabic-form="isolated" 
d="M800 -100c0 15.333 -34.334 41.999 -103.001 79.999c-92 50.667 -156.333 92 -193 124c-69.333 60.667 -104 126 -104 196c0 134.667 62.333 237.334 187 308.001c108 61.333 245.667 92 413 92h100v-100c-62.667 0 -126.334 -5 -191.001 -15
c-87.333 -13.333 -157.333 -33.333 -210 -60c-66 -33.333 -99 -75 -99 -125c0 -34 34.333 -72.667 103 -116l193 -120c69.333 -52.667 104 -107.334 104 -164.001c0 -118 -47.333 -207.333 -142 -268c-85.333 -54.667 -200.666 -82 -345.999 -82
c-141.333 0 -254.666 40 -339.999 120c-66.667 62.667 -114.334 147.334 -143.001 254.001c-19.333 72 -29 147.333 -29 226v50h100c0 -132 21.667 -242 65 -330c36.667 -75.333 88.334 -132.333 155.001 -171c56 -32.667 116 -49 180 -49c84 0 157.667 20.667 221 62
c52.667 34 79 63.333 79 88z" />
    <glyph glyph-name="afii57450" unicode="&#x64a;" arabic-form="isolated" 
d="M800 -100c0 15.333 -34.334 41.999 -103.001 79.999c-92 50.667 -156.333 92 -193 124c-69.333 60.667 -104 126 -104 196c0 134.667 62.333 237.334 187 308.001c108 61.333 245.667 92 413 92h100v-100c-62.667 0 -126.334 -5 -191.001 -15
c-87.333 -13.333 -157.333 -33.333 -210 -60c-66 -33.333 -99 -75 -99 -125c0 -34 34.333 -72.667 103 -116l193 -120c69.333 -52.667 104 -107.334 104 -164.001c0 -118 -47.333 -207.333 -142 -268c-85.333 -54.667 -200.666 -82 -345.999 -82
c-141.333 0 -254.666 40 -339.999 120c-66.667 62.667 -114.334 147.334 -143.001 254.001c-19.333 72 -29 147.333 -29 226v50h100c0 -132 21.667 -242 65 -330c36.667 -75.333 88.334 -132.333 155.001 -171c56 -32.667 116 -49 180 -49c84 0 157.667 20.667 221 62
c52.667 34 79 63.333 79 88z" />
    <glyph glyph-name="afii57506" unicode="&#x67e;" horiz-adv-x="1200" arabic-form="isolated" 
d="M300 0c-98 0 -172.499 24.499 -223.499 73.499s-76.5 116.5 -76.5 202.5c0 62 21.333 120.333 64 175c35.333 44.667 78.666 81.667 129.999 111c44.667 25.333 80 38 106 38l70 -70c-44.667 0 -98.667 -23 -162 -69c-72 -52 -108 -105.667 -108 -161
s26.333 -94.666 79 -117.999c48 -21.333 121.667 -32 221 -32h500c26.667 0 50 10.333 70 31s30 43.667 30 69v350l100 -100c33.333 -33.333 56 -60 68 -80c21.333 -35.333 32 -75.333 32 -120v-300h-900zM689.001 -527.001c-19.333 -19.333 -43 -29 -71 -29
s-51.667 9.66699 -71 29s-29 43 -29 71s9.66699 51.667 29 71s43 29 71 29s51.667 -9.66699 71 -29s29 -43 29 -71s-9.66699 -51.667 -29 -71zM811.001 -271.001c-19.333 -19.333 -43 -29 -71 -29s-51.667 9.66699 -71 29s-29 43 -29 71s9.66699 51.667 29 71s43 29 71 29
s51.667 -9.66699 71 -29s29 -43 29 -71s-9.66699 -51.667 -29 -71zM571.001 -271.001c-19.333 -19.333 -43 -29 -71 -29s-51.667 9.66699 -71 29s-29 43 -29 71s9.66699 51.667 29 71s43 29 71 29s51.667 -9.66699 71 -29s29 -43 29 -71s-9.66699 -51.667 -29 -71z" />
    <glyph glyph-name="afii57507" unicode="&#x686;" arabic-form="isolated" 
d="M600 0c-95.333 0 -194.667 -33.332 -298 -99.999c-99.333 -64 -149 -122 -149 -174c6.66699 -36.667 19 -65.334 37 -86.001c28.667 -32.667 77.667 -58 147 -76c88 -22.667 207.333 -34 358 -34h405v-100h-600c-81.333 0 -154 7.33301 -218 22
c-84 19.333 -149.333 50 -196 92c-57.333 52 -86 119.333 -86 202v45c-0 86.667 54.333 168.167 163 244.5s221 114.5 337 114.5h350v34c0 90.667 -33 163.667 -99 219c-77.333 64.667 -194.333 97 -351 97h-200v100h300c230.667 0 393 -43.667 487 -131
c75.333 -70 113 -176.333 113 -319v-150h-500zM801.999 -402.999c-19.333 -19.333 -43 -29 -71 -29s-51.667 9.66699 -71 29s-29 43 -29 71s9.66699 51.667 29 71s43 29 71 29s51.667 -9.66699 71 -29s29 -43 29 -71s-9.66699 -51.667 -29 -71zM918.999 -235.999
c-19.333 -19.333 -43 -29 -71 -29s-51.667 9.66699 -71 29s-29 43 -29 71s9.66699 51.667 29 71s43 29 71 29s51.667 -9.66699 71 -29s29 -43 29 -71s-9.66699 -51.667 -29 -71zM678.999 -235.999c-19.333 -19.333 -43 -29 -71 -29s-51.667 9.66699 -71 29s-29 43 -29 71
s9.66699 51.667 29 71s43 29 71 29s51.667 -9.66699 71 -29s29 -43 29 -71s-9.66699 -51.667 -29 -71z" />
    <glyph glyph-name="afii57508" unicode="&#x698;" horiz-adv-x="600" arabic-form="isolated" 
d="M400 300c0 35.333 5.83301 66.668 17.5 94.001s39.167 62.666 82.5 105.999l100 100v-600c0 -129.333 -41.667 -230.333 -125 -303c-74 -64.667 -165.667 -97 -275 -97h-200v100h100c82 0 151 25 207 75c62 55.333 93 130.333 93 225v300zM465 961.002
c0 -28 -9.66699 -51.667 -29 -71s-43 -29 -71 -29s-51.667 9.66699 -71 29s-29 43 -29 71s9.66699 51.667 29 71s43 29 71 29s51.667 -9.66699 71 -29s29 -43 29 -71zM587 705.002c0 -28 -9.66699 -51.667 -29 -71s-43 -29 -71 -29s-51.667 9.66699 -71 29s-29 43 -29 71
s9.66699 51.667 29 71s43 29 71 29s51.667 -9.66699 71 -29s29 -43 29 -71zM347 705.002c0 -28 -9.66699 -51.667 -29 -71s-43 -29 -71 -29s-51.667 9.66699 -71 29s-29 43 -29 71s9.66699 51.667 29 71s43 29 71 29s51.667 -9.66699 71 -29s29 -43 29 -71z" />
    <glyph glyph-name="afii57509" unicode="&#x6af;" horiz-adv-x="1200" arabic-form="isolated" 
d="M1000 833l100.001 -100.001c33.333 -33.333 56 -60 68 -80c21.333 -35.333 32 -75.333 32 -120v-533h-900c-98 0 -172.5 24.5 -223.5 73.5s-76.5 116.5 -76.5 202.5c0 62 21.333 120.333 64 175c35.333 44.667 78.666 81.667 129.999 111c44.667 25.333 80 38 106 38
l70 -70c-44.667 0 -98.667 -23 -162 -69c-72 -52 -108 -105.667 -108 -161s26.333 -94.666 79 -117.999c48 -21.333 121.667 -32 221 -32h500c26.667 0 50 10.333 70 31s30 43.667 30 69l-3 483h-507v119l447 445h168l-465 -464h360zM491.001 1070l227 226h168l-395 -392
v166z" />
    <glyph glyph-name="uniFB57" unicode="&#x67e;" horiz-adv-x="1300" arabic-form="final" 
d="M1352 0l-1052 -0.000976562c-98 0 -172.5 24.5 -223.5 73.5s-76.5 116.5 -76.5 202.5c0 62 21.333 120.333 64 175c35.333 44.667 78.666 81.667 129.999 111c44.667 25.333 80 38 106 38l70 -70c-44.667 0 -98.667 -23 -162 -69c-72 -52 -108 -105.667 -108 -161
s26.333 -94.666 79 -117.999c48 -21.333 121.667 -32 221 -32h500c29.333 0 53.333 9.33301 72 28s28 42.667 28 72v50c0 44 10.667 83.667 32 119c13.333 22 36 49 68 81l100 100v-350c0 -25.333 10.333 -48.333 31 -69s43.667 -31 69 -31h52v-150zM689.001 -527.001
c-19.333 -19.333 -43 -29 -71 -29s-51.667 9.66699 -71 29s-29 43 -29 71s9.66699 51.667 29 71s43 29 71 29s51.667 -9.66699 71 -29s29 -43 29 -71s-9.66699 -51.667 -29 -71zM811.001 -271.001c-19.333 -19.333 -43 -29 -71 -29s-51.667 9.66699 -71 29s-29 43 -29 71
s9.66699 51.667 29 71s43 29 71 29s51.667 -9.66699 71 -29s29 -43 29 -71s-9.66699 -51.667 -29 -71zM571.001 -271.001c-19.333 -19.333 -43 -29 -71 -29s-51.667 9.66699 -71 29s-29 43 -29 71s9.66699 51.667 29 71s43 29 71 29s51.667 -9.66699 71 -29s29 -43 29 -71
s-9.66699 -51.667 -29 -71z" />
    <glyph glyph-name="uniFB58" unicode="&#x67e;" horiz-adv-x="400" arabic-form="initial" 
d="M400 0l-400 -0.000976562v150h100c26.667 0 50 10.333 70 31s30 43.667 30 69v350l100 -100c34.667 -34.667 58 -62 70 -82c20 -33.333 30 -72.666 30 -117.999v-300zM289 -525.001c-19.333 -19.333 -43 -29 -71 -29s-51.667 9.66699 -71 29s-29 43 -29 71
s9.66699 51.667 29 71s43 29 71 29s51.667 -9.66699 71 -29s29 -43 29 -71s-9.66699 -51.667 -29 -71zM384 -271.001c-19.333 -19.333 -43 -29 -71 -29s-51.667 9.66699 -71 29s-29 43 -29 71s9.66699 51.667 29 71s43 29 71 29s51.667 -9.66699 71 -29s29 -43 29 -71
s-9.66699 -51.667 -29 -71zM171 -269.001c-19.333 -19.333 -43 -29 -71 -29s-51.667 9.66699 -71 29s-29 43 -29 71s9.66699 51.667 29 71s43 29 71 29s51.667 -9.66699 71 -29s29 -43 29 -71s-9.66699 -51.667 -29 -71z" />
    <glyph glyph-name="uniFB59" unicode="&#x67e;" horiz-adv-x="600" arabic-form="medial" 
d="M648 0l-648 -0.000976562v150h100c26.667 0 50 10.333 70 31s30 43.667 30 69v350l100 -100c33.333 -33.333 56.333 -60.666 69 -81.999c20.667 -34.667 31 -74 31 -118v-50c0 -25.333 10.667 -48.333 32 -69s44 -31 68 -31h148v-150zM389 -524.001
c-19.333 -19.333 -43 -29 -71 -29s-51.667 9.66699 -71 29s-29 43 -29 71s9.66699 51.667 29 71s43 29 71 29s51.667 -9.66699 71 -29s29 -43 29 -71s-9.66699 -51.667 -29 -71zM510 -269.001c-19.333 -19.333 -43 -29 -71 -29s-51.667 9.66699 -71 29s-29 43 -29 71
s9.66699 51.667 29 71s43 29 71 29s51.667 -9.66699 71 -29s29 -43 29 -71s-9.66699 -51.667 -29 -71zM271 -268.001c-19.333 -19.333 -43 -29 -71 -29s-51.667 9.66699 -71 29s-29 43 -29 71s9.66699 51.667 29 71s43 29 71 29s51.667 -9.66699 71 -29s29 -43 29 -71
s-9.66699 -51.667 -29 -71z" />
    <glyph glyph-name="uniFB7B" unicode="&#x686;" horiz-adv-x="1200" arabic-form="final" 
d="M600 0c-95.333 0 -194.667 -33.332 -298 -99.999c-99.333 -64 -149 -122 -149 -174c6.66699 -36.667 19 -65.334 37 -86.001c28.667 -32.667 77.667 -58 147 -76c88 -22.667 207.333 -34 358 -34h405v-100h-600c-81.333 0 -154 7.33301 -218 22
c-84 19.333 -149.333 50 -196 92c-57.333 52 -86 119.333 -86 202v45c-0 86.667 54.333 168.167 163 244.5s221 114.5 337 114.5h350v34c0 90.667 -33 163.667 -99 219c-77.333 64.667 -194.333 97 -351 97h-200v100h300c230.667 0 393 -43.667 487 -131
c75.333 -70 113 -176.333 113 -319h150v-150h-650zM796.999 -404.999c-19.333 -19.333 -43 -29 -71 -29s-51.667 9.66699 -71 29s-29 43 -29 71s9.66699 51.667 29 71s43 29 71 29s51.667 -9.66699 71 -29s29 -43 29 -71s-9.66699 -51.667 -29 -71zM913.999 -237.999
c-19.333 -19.333 -43 -29 -71 -29s-51.667 9.66699 -71 29s-29 43 -29 71s9.66699 51.667 29 71s43 29 71 29s51.667 -9.66699 71 -29s29 -43 29 -71s-9.66699 -51.667 -29 -71zM673.999 -237.999c-19.333 -19.333 -43 -29 -71 -29s-51.667 9.66699 -71 29s-29 43 -29 71
s9.66699 51.667 29 71s43 29 71 29s51.667 -9.66699 71 -29s29 -43 29 -71s-9.66699 -51.667 -29 -71z" />
    <glyph glyph-name="uniFB7C" unicode="&#x686;" horiz-adv-x="1100" arabic-form="initial" 
d="M1100 0h-1100v150h850v34c0 90.667 -33 163.667 -99 219c-77.333 64.667 -194.333 97 -351 97h-200v100h300c230.667 0 393 -43.667 487 -131c75.333 -70 113 -176.333 113 -319v-150zM661 -432c-19.333 -19.333 -43 -29 -71 -29s-51.667 9.66699 -71 29s-29 43 -29 71
s9.66699 51.667 29 71s43 29 71 29s51.667 -9.66699 71 -29s29 -43 29 -71s-9.66699 -51.667 -29 -71zM778 -265c-19.333 -19.333 -43 -29 -71 -29s-51.667 9.66699 -71 29s-29 43 -29 71s9.66699 51.667 29 71s43 29 71 29s51.667 -9.66699 71 -29s29 -43 29 -71
s-9.66699 -51.667 -29 -71zM538 -265c-19.333 -19.333 -43 -29 -71 -29s-51.667 9.66699 -71 29s-29 43 -29 71s9.66699 51.667 29 71s43 29 71 29s51.667 -9.66699 71 -29s29 -43 29 -71s-9.66699 -51.667 -29 -71z" />
    <glyph glyph-name="uniFB7D" unicode="&#x686;" horiz-adv-x="1200" arabic-form="medial" 
d="M1250 0h-1250v150h850v34c0 90.667 -33 163.667 -99 219c-77.333 64.667 -194.333 97 -351 97h-200v100h300c230.667 0 393 -43.667 487 -131c75.333 -70 113 -176.333 113 -319h150v-150zM661 -432c-19.333 -19.333 -43 -29 -71 -29s-51.667 9.66699 -71 29
s-29 43 -29 71s9.66699 51.667 29 71s43 29 71 29s51.667 -9.66699 71 -29s29 -43 29 -71s-9.66699 -51.667 -29 -71zM778 -265c-19.333 -19.333 -43 -29 -71 -29s-51.667 9.66699 -71 29s-29 43 -29 71s9.66699 51.667 29 71s43 29 71 29s51.667 -9.66699 71 -29
s29 -43 29 -71s-9.66699 -51.667 -29 -71zM538 -265c-19.333 -19.333 -43 -29 -71 -29s-51.667 9.66699 -71 29s-29 43 -29 71s9.66699 51.667 29 71s43 29 71 29s51.667 -9.66699 71 -29s29 -43 29 -71s-9.66699 -51.667 -29 -71z" />
    <glyph glyph-name="uniFB8B" unicode="&#x698;" horiz-adv-x="700" arabic-form="final" 
d="M400 300c0 35.333 5.83301 66.668 17.5 94.001s39.167 62.666 82.5 105.999l100 100v-450h150v-150h-150c0 -129.333 -41.667 -230.333 -125 -303c-74 -64.667 -165.667 -97 -275 -97h-200v100h100c82 0 151 25 207 75c62 55.333 93 130.333 93 225v300zM465 961.002
c0 -28 -9.66699 -51.667 -29 -71s-43 -29 -71 -29s-51.667 9.66699 -71 29s-29 43 -29 71s9.66699 51.667 29 71s43 29 71 29s51.667 -9.66699 71 -29s29 -43 29 -71zM587 705.002c0 -28 -9.66699 -51.667 -29 -71s-43 -29 -71 -29s-51.667 9.66699 -71 29s-29 43 -29 71
s9.66699 51.667 29 71s43 29 71 29s51.667 -9.66699 71 -29s29 -43 29 -71zM347 705.002c0 -28 -9.66699 -51.667 -29 -71s-43 -29 -71 -29s-51.667 9.66699 -71 29s-29 43 -29 71s9.66699 51.667 29 71s43 29 71 29s51.667 -9.66699 71 -29s29 -43 29 -71z" />
    <glyph glyph-name="uniFB8F" unicode="&#x6a9;" horiz-adv-x="1215" arabic-form="final" 
d="M1200 150l160.001 -0.000976562v-150h-1060c-98 0 -172.5 24.5 -223.5 73.5s-76.5 116.5 -76.5 202.5c0 62 21.333 120.333 64 175c35.333 44.667 78.666 81.667 129.999 111c44.667 25.333 80 38 106 38l70 -70c-44.667 0 -98.667 -23 -162 -69
c-72 -52 -108 -105.667 -108 -161s26.333 -94.666 79 -117.999c48 -21.333 121.667 -32 221 -32h500c26.667 0 50 10.333 70 31s30 43.667 30 69l-1 483h-509v119l447 445h168l-465 -464h360l100 -100c33.333 -33.333 56 -60 68 -80c21.333 -35.333 32 -75.333 32 -120v-383
z" />
    <glyph glyph-name="uniFB90" unicode="&#x6a9;" horiz-adv-x="1100" arabic-form="initial" 
d="M100 619l680.999 681.001h168l-699 -700h490c114.667 0 203.334 -32.333 266.001 -97s94 -152.334 94 -263.001v-240h-1100v150h900v90c0 50 -27.333 104 -82 162c-61.333 65.333 -127.333 98 -198 98h-520v119z" />
    <glyph glyph-name="uniFB91" unicode="&#x6a9;" horiz-adv-x="1200" arabic-form="medial" 
d="M100 619l680.999 681.001h168l-699 -700h490c114.667 0 203.334 -32.333 266.001 -97s94 -152.334 94 -263.001v-90h150v-150h-1250v150h900v90c0 50 -27.333 104 -82 162c-61.333 65.333 -127.333 98 -198 98h-520v119z" />
    <glyph glyph-name="uniFB93" unicode="&#x6af;" horiz-adv-x="1215" arabic-form="final" 
d="M1200 150l160.001 -0.000976562v-150h-1060c-98 0 -172.5 24.5 -223.5 73.5s-76.5 116.5 -76.5 202.5c0 62 21.333 120.333 64 175c35.333 44.667 78.666 81.667 129.999 111c44.667 25.333 80 38 106 38l70 -70c-44.667 0 -98.667 -23 -162 -69
c-72 -52 -108 -105.667 -108 -161s26.333 -94.666 79 -117.999c48 -21.333 121.667 -32 221 -32h500c26.667 0 50 10.333 70 31s30 43.667 30 69l-1 483h-509v119l447 445h168l-465 -464h360l100 -100c33.333 -33.333 56 -60 68 -80c21.333 -35.333 32 -75.333 32 -120v-383
zM491.001 1070l227 226h168l-395 -392v166z" />
    <glyph glyph-name="uniFB94" unicode="&#x6af;" horiz-adv-x="1100" arabic-form="initial" 
d="M100 619l680.999 681.001h168l-699 -700h490c114.667 0 203.334 -32.333 266.001 -97s94 -152.334 94 -263.001v-240h-1100v150h900v90c0 50 -27.333 104 -82 162c-61.333 65.333 -127.333 98 -198 98h-520v119zM321.999 1073l227 226h168l-395 -392v166z" />
    <glyph glyph-name="uniFB95" unicode="&#x6af;" horiz-adv-x="1200" arabic-form="medial" 
d="M100 619l680.999 681.001h168l-699 -700h490c114.667 0 203.334 -32.333 266.001 -97s94 -152.334 94 -263.001v-90h150v-150h-1250v150h900v90c0 50 -27.333 104 -82 162c-61.333 65.333 -127.333 98 -198 98h-520v119zM321.999 1073l227 226h168l-395 -392v166z" />
    <glyph glyph-name="uniFBA5" unicode="&#x6c0;" horiz-adv-x="700" arabic-form="final" 
d="M100 600l-0.000976562 -282.001c0 -61.333 15.833 -104.666 47.5 -129.999s81.834 -38 150.501 -38h102v240c0 46 -11.667 87.667 -35 125c-35.333 56.667 -90.333 85 -165 85h-100zM217.999 -0.000976562c-62.667 0 -114 21 -154 63c-42.667 45.333 -64 107.333 -64 186
v451h300c120 0 204.333 -37.333 253 -112c31.333 -48 47 -110.667 47 -188v-250h160v-150h-542zM366.999 869.999h-361.999v60h85c-9.33301 12 -16.333 22 -21 30c-14.667 25.333 -22 49 -22 71c0 39.333 16.333 71.333 49 96c38 28.667 93.333 43 166 43l55 1v-61h-44
c-26 0 -50.167 -6.66699 -72.5 -20s-33.5 -30 -33.5 -50c0 -28 16.667 -53.333 50 -76s66.666 -34 99.999 -34h50v-60z" />
    <glyph glyph-name="uniFBFD" unicode="&#x6cc;" horiz-adv-x="900" arabic-form="final" 
d="M960 0l-160 -0.00195312c22.667 -12.667 39.334 -25 50.001 -37c33.333 -37.333 50 -86.333 50 -147c0 -108 -32 -187.667 -96 -239s-161.333 -77 -292 -77c-142.667 0 -256 36.667 -340 110c-67.333 58.667 -115 139.334 -143 242.001
c-19.333 70.667 -29 149.334 -29 236.001v62h100c0 -132 21.333 -242 64 -330c36.667 -76 87.667 -133 153 -171c56 -32.667 117 -49 183 -49c58.667 0 108 18 148 54c34.667 30.667 52 62 52 94c0 26 -19 52.333 -57 79c-42 30 -89 45 -141 45v106
c0 42 19.167 81.167 57.5 117.5s77.166 54.5 116.499 54.5h284v-150z" />
    <glyph glyph-name="uniFBFE" unicode="&#x6cc;" horiz-adv-x="400" arabic-form="initial" 
d="M400 0l-400 -0.000976562v150h100c26.667 0 50 10.333 70 31s30 43.667 30 69v350l100 -100c34.667 -34.667 58 -62 70 -82c20 -33.333 30 -72.666 30 -117.999v-300zM440 -200.001c0 -28 -9.66699 -51.667 -29 -71s-43 -29 -71 -29s-51.667 9.66699 -71 29
s-29 43 -29 71s9.66699 51.667 29 71s43 29 71 29s51.667 -9.66699 71 -29s29 -43 29 -71zM200 -200.001c0 -28 -9.66699 -51.667 -29 -71s-43 -29 -71 -29s-51.667 9.66699 -71 29s-29 43 -29 71s9.66699 51.667 29 71s43 29 71 29s51.667 -9.66699 71 -29s29 -43 29 -71z
" />
    <glyph glyph-name="uniFBFF" unicode="&#x6cc;" horiz-adv-x="600" arabic-form="medial" 
d="M476 -200c0 -28 -9.66699 -51.667 -29 -71s-43 -29 -71 -29s-51.667 9.66699 -71 29s-29 43 -29 71s9.66699 51.667 29 71s43 29 71 29s51.667 -9.66699 71 -29s29 -43 29 -71zM236 -200c0 -28 -9.66699 -51.667 -29 -71s-43 -29 -71 -29s-51.667 9.66699 -71 29
s-29 43 -29 71s9.66699 51.667 29 71s43 29 71 29s51.667 -9.66699 71 -29s29 -43 29 -71zM648 0l-648 -0.000976562v150h100c26.667 0 50 10.333 70 31s30 43.667 30 69v350l100 -100c33.333 -33.333 56.333 -60.666 69 -81.999c20.667 -34.667 31 -74 31 -118v-50
c0 -25.333 10.667 -48.333 32 -69s44 -31 68 -31h148v-150z" />
    <glyph glyph-name="uniFE82" unicode="&#x622;" horiz-adv-x="600" arabic-form="final" 
d="M653 0l-453 0.000976562v1000c0 45.333 10 84.666 30 117.999c12 20 35.333 47.333 70 82l100 100v-1050c0 -27.333 10.167 -50.833 30.5 -70.5s43.5 -29.5 69.5 -29.5h153v-150zM600 1603c-6 -41.333 -13.335 -72.001 -22.002 -92.001c-27.333 -61.333 -73 -92 -137 -92
h-139h-32.5c-10.333 0 -20.166 0.333008 -29.499 1c-28 0 -49 -3 -63 -9s-31 -20.667 -51 -44c8.66699 36 18.334 63 29.001 81c32 54 80 81 144 81h133c52 0 88.667 6 110 18c8 4.66699 27.333 23.334 58 56.001z" />
    <glyph glyph-name="uniFE84" unicode="&#x623;" horiz-adv-x="600" arabic-form="final" 
d="M653 0l-453 0.000976562v1000c0 45.333 10 84.666 30 117.999c12 20 35.333 47.333 70 82l100 100v-1050c0 -27.333 10.167 -50.833 30.5 -70.5s43.5 -29.5 69.5 -29.5h153v-150zM500 1360h-361.999v60h85c-9.33301 12 -16.333 22 -21 30c-14.667 25.333 -22 49 -22 71
c0 39.333 16.333 71.333 49 96c38 28.667 93.333 43 166 43l55 1v-61h-44c-26 0 -50.167 -6.66699 -72.5 -20s-33.5 -30 -33.5 -50c0 -28 16.667 -53.333 50 -76s66.666 -34 99.999 -34h50v-60z" />
    <glyph glyph-name="uniFE86" unicode="&#x624;" arabic-form="final" 
d="M700 150l0.000976562 150c0 50 -20.833 95.833 -62.5 137.5s-87.5 62.5 -137.5 62.5c-52.667 0 -98.334 -16 -137.001 -48c-42 -34.667 -63 -78.667 -63 -132c0 -59.333 30 -102.5 90 -129.5s163.333 -40.5 310 -40.5zM700.001 0h-200
c-92.667 -0 -167.667 33.333 -225 100c-50 58.667 -75 124.667 -75 198c0 82 25 151.333 75 208c55.333 62.667 130.333 94 225 94c121.333 0 218.333 -32.5 291 -97.5s109 -149.167 109 -252.5v-100h160v-150h-160c0 -112.667 -33.333 -203 -100 -271
c-84 -86 -217.333 -129 -400 -129h-200v100h200c72 0 141.333 32.333 208 97c61.333 59.333 92 113.333 92 162v41zM662.001 700h-361.999v60h85c-9.33301 12 -16.333 22 -21 30c-14.667 25.333 -22 49 -22 71c0 39.333 16.333 71.333 49 96c38 28.667 93.333 43 166 43
l55 1v-61h-44c-26 0 -50.167 -6.66699 -72.5 -20s-33.5 -30 -33.5 -50c0 -28 16.667 -53.333 50 -76s66.666 -34 99.999 -34h50v-60z" />
    <glyph glyph-name="uniFE88" unicode="&#x625;" horiz-adv-x="600" arabic-form="final" 
d="M653 0l-453 0.000976562v1000c0 45.333 10 84.666 30 117.999c12 20 35.333 47.333 70 82l100 100v-1050c0 -27.333 10.167 -50.833 30.5 -70.5s43.5 -29.5 69.5 -29.5h153v-150zM550 -400.999h-361.999v60h85c-9.33301 12 -16.333 22 -21 30
c-14.667 25.333 -22 49 -22 71c0 39.333 16.333 71.333 49 96c38 28.667 93.333 43 166 43l55 1v-61h-44c-26 0 -50.167 -6.66699 -72.5 -20s-33.5 -30 -33.5 -50c0 -28 16.667 -53.333 50 -76s66.666 -34 99.999 -34h50v-60z" />
    <glyph glyph-name="uniFE8A" unicode="&#x626;" horiz-adv-x="900" arabic-form="final" 
d="M960 0l-160 -0.00195312c22.667 -12.667 39.334 -25 50.001 -37c33.333 -37.333 50 -86.333 50 -147c0 -108 -32 -187.667 -96 -239s-161.333 -77 -292 -77c-142.667 0 -256 36.667 -340 110c-67.333 58.667 -115 139.334 -143 242.001
c-19.333 70.667 -29 149.334 -29 236.001v62h100c0 -132 21.333 -242 64 -330c36.667 -76 87.667 -133 153 -171c56 -32.667 117 -49 183 -49c58.667 0 108 18 148 54c34.667 30.667 52 62 52 94c0 26 -19 52.333 -57 79c-42 30 -89 45 -141 45v106
c0 42 19.167 81.167 57.5 117.5s77.166 54.5 116.499 54.5h284v-150zM400 249.998h-361.999v60h85c-9.33301 12 -16.333 22 -21 30c-14.667 25.333 -22 49 -22 71c0 39.333 16.333 71.333 49 96c38 28.667 93.333 43 166 43l55 1v-61h-44c-26 0 -50.167 -6.66699 -72.5 -20
s-33.5 -30 -33.5 -50c0 -28 16.667 -53.333 50 -76s66.666 -34 99.999 -34h50v-60z" />
    <glyph glyph-name="uniFE8B" unicode="&#x626;" horiz-adv-x="400" arabic-form="initial" 
d="M362 779h-361.999v60h85c-9.33301 12 -16.333 22 -21 30c-14.667 25.333 -22 49 -22 71c0 39.333 16.333 71.333 49 96c38 28.667 93.333 43 166 43l55 1v-61h-44c-26 0 -50.167 -6.66699 -72.5 -20s-33.5 -30 -33.5 -50c0 -28 16.667 -53.333 50 -76
s66.666 -34 99.999 -34h50v-60zM400.001 0l-400 -0.000976562v150h100c26.667 0 50 10.333 70 31s30 43.667 30 69v350l100 -100c34.667 -34.667 58 -62 70 -82c20 -33.333 30 -72.666 30 -117.999v-300z" />
    <glyph glyph-name="uniFE8C" unicode="&#x626;" horiz-adv-x="600" arabic-form="medial" 
d="M362 779h-361.999v60h85c-9.33301 12 -16.333 22 -21 30c-14.667 25.333 -22 49 -22 71c0 39.333 16.333 71.333 49 96c38 28.667 93.333 43 166 43l55 1v-61h-44c-26 0 -50.167 -6.66699 -72.5 -20s-33.5 -30 -33.5 -50c0 -28 16.667 -53.333 50 -76
s66.666 -34 99.999 -34h50v-60zM648.001 0l-648 -0.000976562v150h100c26.667 0 50 10.333 70 31s30 43.667 30 69v350l100 -100c33.333 -33.333 56.333 -60.666 69 -81.999c20.667 -34.667 31 -74 31 -118v-50c0 -25.333 10.667 -48.333 32 -69s44 -31 68 -31h148v-150z
" />
    <glyph glyph-name="uniFE8E" unicode="&#x627;" horiz-adv-x="600" arabic-form="final" 
d="M653 0l-453 0.000976562v1000c0 45.333 10 84.666 30 117.999c12 20 35.333 47.333 70 82l100 100v-1050c0 -27.333 10.167 -50.833 30.5 -70.5s43.5 -29.5 69.5 -29.5h153v-150z" />
    <glyph glyph-name="uniFE90" unicode="&#x628;" horiz-adv-x="1300" arabic-form="final" 
d="M1352 0l-1052 -0.000976562c-98 0 -172.5 24.5 -223.5 73.5s-76.5 116.5 -76.5 202.5c0 62 21.333 120.333 64 175c35.333 44.667 78.666 81.667 129.999 111c44.667 25.333 80 38 106 38l70 -70c-44.667 0 -98.667 -23 -162 -69c-72 -52 -108 -105.667 -108 -161
s26.333 -94.666 79 -117.999c48 -21.333 121.667 -32 221 -32h500c29.333 0 53.333 9.33301 72 28s28 42.667 28 72v50c0 44 10.667 83.667 32 119c13.333 22 36 49 68 81l100 100v-350c0 -25.333 10.333 -48.333 31 -69s43.667 -31 69 -31h52v-150zM700.001 -200.001
c0 -28 -9.66699 -51.667 -29 -71s-43 -29 -71 -29s-51.667 9.66699 -71 29s-29 43 -29 71s9.66699 51.667 29 71s43 29 71 29s51.667 -9.66699 71 -29s29 -43 29 -71z" />
    <glyph glyph-name="uniFE91" unicode="&#x628;" horiz-adv-x="400" arabic-form="initial" 
d="M400 0l-400 -0.000976562v150h100c26.667 0 50 10.333 70 31s30 43.667 30 69v350l100 -100c34.667 -34.667 58 -62 70 -82c20 -33.333 30 -72.666 30 -117.999v-300zM300 -200.001c0 -28 -9.66699 -51.667 -29 -71s-43 -29 -71 -29s-51.667 9.66699 -71 29
s-29 43 -29 71s9.66699 51.667 29 71s43 29 71 29s51.667 -9.66699 71 -29s29 -43 29 -71z" />
    <glyph glyph-name="uniFE92" unicode="&#x628;" horiz-adv-x="600" arabic-form="medial" 
d="M648 0l-648 -0.000976562v150h100c26.667 0 50 10.333 70 31s30 43.667 30 69v350l100 -100c33.333 -33.333 56.333 -60.666 69 -81.999c20.667 -34.667 31 -74 31 -118v-50c0 -25.333 10.667 -48.333 32 -69s44 -31 68 -31h148v-150zM400 -200.001
c0 -28 -9.66699 -51.667 -29 -71s-43 -29 -71 -29s-51.667 9.66699 -71 29s-29 43 -29 71s9.66699 51.667 29 71s43 29 71 29s51.667 -9.66699 71 -29s29 -43 29 -71z" />
    <glyph glyph-name="uniFE96" unicode="&#x62a;" horiz-adv-x="1300" arabic-form="final" 
d="M940 700c0 -28 -9.66699 -51.667 -29 -71s-43 -29 -71 -29s-51.667 9.66699 -71 29s-29 43 -29 71s9.66699 51.667 29 71s43 29 71 29s51.667 -9.66699 71 -29s29 -43 29 -71zM700 700c0 -28 -9.66699 -51.667 -29 -71s-43 -29 -71 -29s-51.667 9.66699 -71 29
s-29 43 -29 71s9.66699 51.667 29 71s43 29 71 29s51.667 -9.66699 71 -29s29 -43 29 -71zM1352 0l-1052 -0.000976562c-98 0 -172.5 24.5 -223.5 73.5s-76.5 116.5 -76.5 202.5c0 62 21.333 120.333 64 175c35.333 44.667 78.666 81.667 129.999 111
c44.667 25.333 80 38 106 38l70 -70c-44.667 0 -98.667 -23 -162 -69c-72 -52 -108 -105.667 -108 -161s26.333 -94.666 79 -117.999c48 -21.333 121.667 -32 221 -32h500c29.333 0 53.333 9.33301 72 28s28 42.667 28 72v50c0 44 10.667 83.667 32 119
c13.333 22 36 49 68 81l100 100v-350c0 -25.333 10.333 -48.333 31 -69s43.667 -31 69 -31h52v-150z" />
    <glyph glyph-name="uniFE97" unicode="&#x62a;" horiz-adv-x="400" arabic-form="initial" 
d="M400 0l-400 -0.000976562v150h100c26.667 0 50 10.333 70 31s30 43.667 30 69v350l100 -100c34.667 -34.667 58 -62 70 -82c20 -33.333 30 -72.666 30 -117.999v-300zM440 799.999c0 -28 -9.66699 -51.667 -29 -71s-43 -29 -71 -29s-51.667 9.66699 -71 29s-29 43 -29 71
s9.66699 51.667 29 71s43 29 71 29s51.667 -9.66699 71 -29s29 -43 29 -71zM200 799.999c0 -28 -9.66699 -51.667 -29 -71s-43 -29 -71 -29s-51.667 9.66699 -71 29s-29 43 -29 71s9.66699 51.667 29 71s43 29 71 29s51.667 -9.66699 71 -29s29 -43 29 -71z" />
    <glyph glyph-name="uniFE98" unicode="&#x62a;" horiz-adv-x="600" arabic-form="medial" 
d="M440 800c0 -28 -9.66699 -51.667 -29 -71s-43 -29 -71 -29s-51.667 9.66699 -71 29s-29 43 -29 71s9.66699 51.667 29 71s43 29 71 29s51.667 -9.66699 71 -29s29 -43 29 -71zM200 800c0 -28 -9.66699 -51.667 -29 -71s-43 -29 -71 -29s-51.667 9.66699 -71 29
s-29 43 -29 71s9.66699 51.667 29 71s43 29 71 29s51.667 -9.66699 71 -29s29 -43 29 -71zM648 0l-648 -0.000976562v150h100c26.667 0 50 10.333 70 31s30 43.667 30 69v350l100 -100c33.333 -33.333 56.333 -60.666 69 -81.999c20.667 -34.667 31 -74 31 -118v-50
c0 -25.333 10.667 -48.333 32 -69s44 -31 68 -31h148v-150z" />
    <glyph glyph-name="uniFE9A" unicode="&#x62b;" horiz-adv-x="1300" arabic-form="final" 
d="M818 956c0 -28 -9.66699 -51.667 -29 -71s-43 -29 -71 -29s-51.667 9.66699 -71 29s-29 43 -29 71s9.66699 51.667 29 71s43 29 71 29s51.667 -9.66699 71 -29s29 -43 29 -71zM940 700c0 -28 -9.66699 -51.667 -29 -71s-43 -29 -71 -29s-51.667 9.66699 -71 29
s-29 43 -29 71s9.66699 51.667 29 71s43 29 71 29s51.667 -9.66699 71 -29s29 -43 29 -71zM700 700c0 -28 -9.66699 -51.667 -29 -71s-43 -29 -71 -29s-51.667 9.66699 -71 29s-29 43 -29 71s9.66699 51.667 29 71s43 29 71 29s51.667 -9.66699 71 -29s29 -43 29 -71z
M1352 0l-1052 -0.000976562c-98 0 -172.5 24.5 -223.5 73.5s-76.5 116.5 -76.5 202.5c0 62 21.333 120.333 64 175c35.333 44.667 78.666 81.667 129.999 111c44.667 25.333 80 38 106 38l70 -70c-44.667 0 -98.667 -23 -162 -69c-72 -52 -108 -105.667 -108 -161
s26.333 -94.666 79 -117.999c48 -21.333 121.667 -32 221 -32h500c29.333 0 53.333 9.33301 72 28s28 42.667 28 72v50c0 44 10.667 83.667 32 119c13.333 22 36 49 68 81l100 100v-350c0 -25.333 10.333 -48.333 31 -69s43.667 -31 69 -31h52v-150z" />
    <glyph glyph-name="uniFE9B" unicode="&#x62b;" horiz-adv-x="400" arabic-form="initial" 
d="M400 0l-400 -0.000976562v150h100c26.667 0 50 10.333 70 31s30 43.667 30 69v350l100 -100c34.667 -34.667 58 -62 70 -82c20 -33.333 30 -72.666 30 -117.999v-300zM318 1056c0 -28 -9.66699 -51.667 -29 -71s-43 -29 -71 -29s-51.667 9.66699 -71 29s-29 43 -29 71
s9.66699 51.667 29 71s43 29 71 29s51.667 -9.66699 71 -29s29 -43 29 -71zM440 799.999c0 -28 -9.66699 -51.667 -29 -71s-43 -29 -71 -29s-51.667 9.66699 -71 29s-29 43 -29 71s9.66699 51.667 29 71s43 29 71 29s51.667 -9.66699 71 -29s29 -43 29 -71zM200 799.999
c0 -28 -9.66699 -51.667 -29 -71s-43 -29 -71 -29s-51.667 9.66699 -71 29s-29 43 -29 71s9.66699 51.667 29 71s43 29 71 29s51.667 -9.66699 71 -29s29 -43 29 -71z" />
    <glyph glyph-name="uniFE9C" unicode="&#x62b;" horiz-adv-x="600" arabic-form="medial" 
d="M648 0l-648 -0.000976562v150h100c26.667 0 50 10.333 70 31s30 43.667 30 69v350l100 -100c33.333 -33.333 56.333 -60.666 69 -81.999c20.667 -34.667 31 -74 31 -118v-50c0 -25.333 10.667 -48.333 32 -69s44 -31 68 -31h148v-150zM318 1056
c0 -28 -9.66699 -51.667 -29 -71s-43 -29 -71 -29s-51.667 9.66699 -71 29s-29 43 -29 71s9.66699 51.667 29 71s43 29 71 29s51.667 -9.66699 71 -29s29 -43 29 -71zM440 799.999c0 -28 -9.66699 -51.667 -29 -71s-43 -29 -71 -29s-51.667 9.66699 -71 29s-29 43 -29 71
s9.66699 51.667 29 71s43 29 71 29s51.667 -9.66699 71 -29s29 -43 29 -71zM200 799.999c0 -28 -9.66699 -51.667 -29 -71s-43 -29 -71 -29s-51.667 9.66699 -71 29s-29 43 -29 71s9.66699 51.667 29 71s43 29 71 29s51.667 -9.66699 71 -29s29 -43 29 -71z" />
    <glyph glyph-name="uniFE9E" unicode="&#x62c;" horiz-adv-x="1200" arabic-form="final" 
d="M700 -220c0 -28 -9.66699 -51.667 -29 -71s-43 -29 -71 -29s-51.667 9.66699 -71 29s-29 43 -29 71s9.66699 51.667 29 71s43 29 71 29s51.667 -9.66699 71 -29s29 -43 29 -71zM600 0c-95.333 0 -194.667 -33.332 -298 -99.999c-99.333 -64 -149 -122 -149 -174
c6.66699 -36.667 19 -65.334 37 -86.001c28.667 -32.667 77.667 -58 147 -76c88 -22.667 207.333 -34 358 -34h405v-100h-600c-81.333 0 -154 7.33301 -218 22c-84 19.333 -149.333 50 -196 92c-57.333 52 -86 119.333 -86 202v45c-0 86.667 54.333 168.167 163 244.5
s221 114.5 337 114.5h350v34c0 90.667 -33 163.667 -99 219c-77.333 64.667 -194.333 97 -351 97h-200v100h300c230.667 0 393 -43.667 487 -131c75.333 -70 113 -176.333 113 -319h150v-150h-650z" />
    <glyph glyph-name="uniFE9F" unicode="&#x62c;" horiz-adv-x="1100" arabic-form="initial" 
d="M1100 0h-1100v150h850v34c0 90.667 -33 163.667 -99 219c-77.333 64.667 -194.333 97 -351 97h-200v100h300c230.667 0 393 -43.667 487 -131c75.333 -70 113 -176.333 113 -319v-150zM700 -200c0 -28 -9.66699 -51.667 -29 -71s-43 -29 -71 -29s-51.667 9.66699 -71 29
s-29 43 -29 71s9.66699 51.667 29 71s43 29 71 29s51.667 -9.66699 71 -29s29 -43 29 -71z" />
    <glyph glyph-name="uniFEA0" unicode="&#x62c;" horiz-adv-x="1200" arabic-form="medial" 
d="M1250 0h-1250v150h850v34c0 90.667 -33 163.667 -99 219c-77.333 64.667 -194.333 97 -351 97h-200v100h300c230.667 0 393 -43.667 487 -131c75.333 -70 113 -176.333 113 -319h150v-150zM700 -200c0 -28 -9.66699 -51.667 -29 -71s-43 -29 -71 -29
s-51.667 9.66699 -71 29s-29 43 -29 71s9.66699 51.667 29 71s43 29 71 29s51.667 -9.66699 71 -29s29 -43 29 -71z" />
    <glyph glyph-name="uniFEA2" unicode="&#x62d;" horiz-adv-x="1200" arabic-form="final" 
d="M600 0c-95.333 0 -194.667 -33.332 -298 -99.999c-99.333 -64 -149 -122 -149 -174c6.66699 -36.667 19 -65.334 37 -86.001c28.667 -32.667 77.667 -58 147 -76c88 -22.667 207.333 -34 358 -34h405v-100h-600c-81.333 0 -154 7.33301 -218 22
c-84 19.333 -149.333 50 -196 92c-57.333 52 -86 119.333 -86 202v45c-0 86.667 54.333 168.167 163 244.5s221 114.5 337 114.5h350v34c0 90.667 -33 163.667 -99 219c-77.333 64.667 -194.333 97 -351 97h-200v100h300c230.667 0 393 -43.667 487 -131
c75.333 -70 113 -176.333 113 -319h150v-150h-650z" />
    <glyph glyph-name="uniFEA3" unicode="&#x62d;" horiz-adv-x="1100" arabic-form="initial" 
d="M1100 0h-1100v150h850v34c0 90.667 -33 163.667 -99 219c-77.333 64.667 -194.333 97 -351 97h-200v100h300c230.667 0 393 -43.667 487 -131c75.333 -70 113 -176.333 113 -319v-150z" />
    <glyph glyph-name="uniFEA4" unicode="&#x62d;" horiz-adv-x="1200" arabic-form="medial" 
d="M1250 0h-1250v150h850v34c0 90.667 -33 163.667 -99 219c-77.333 64.667 -194.333 97 -351 97h-200v100h300c230.667 0 393 -43.667 487 -131c75.333 -70 113 -176.333 113 -319h150v-150z" />
    <glyph glyph-name="uniFEA6" unicode="&#x62e;" horiz-adv-x="1200" arabic-form="final" 
d="M600 0c-95.333 0 -194.667 -33.332 -298 -99.999c-99.333 -64 -149 -122 -149 -174c6.66699 -36.667 19 -65.334 37 -86.001c28.667 -32.667 77.667 -58 147 -76c88 -22.667 207.333 -34 358 -34h405v-100h-600c-81.333 0 -154 7.33301 -218 22
c-84 19.333 -149.333 50 -196 92c-57.333 52 -86 119.333 -86 202v45c-0 86.667 54.333 168.167 163 244.5s221 114.5 337 114.5h350v34c0 90.667 -33 163.667 -99 219c-77.333 64.667 -194.333 97 -351 97h-200v100h300c230.667 0 393 -43.667 487 -131
c75.333 -70 113 -176.333 113 -319h150v-150h-650zM599.999 920.001c0 -28 -9.66699 -51.667 -29 -71s-43 -29 -71 -29s-51.667 9.66699 -71 29s-29 43 -29 71s9.66699 51.667 29 71s43 29 71 29s51.667 -9.66699 71 -29s29 -43 29 -71z" />
    <glyph glyph-name="uniFEA7" unicode="&#x62e;" horiz-adv-x="1100" arabic-form="initial" 
d="M1100 0h-1100v150h850v34c0 90.667 -33 163.667 -99 219c-77.333 64.667 -194.333 97 -351 97h-200v100h300c230.667 0 393 -43.667 487 -131c75.333 -70 113 -176.333 113 -319v-150zM600 900c0 -28 -9.66699 -51.667 -29 -71s-43 -29 -71 -29s-51.667 9.66699 -71 29
s-29 43 -29 71s9.66699 51.667 29 71s43 29 71 29s51.667 -9.66699 71 -29s29 -43 29 -71z" />
    <glyph glyph-name="uniFEA8" unicode="&#x62e;" horiz-adv-x="1200" arabic-form="medial" 
d="M1250 0h-1250v150h850v34c0 90.667 -33 163.667 -99 219c-77.333 64.667 -194.333 97 -351 97h-200v100h300c230.667 0 393 -43.667 487 -131c75.333 -70 113 -176.333 113 -319h150v-150zM600 910c0 -28 -9.66699 -51.667 -29 -71s-43 -29 -71 -29
s-51.667 9.66699 -71 29s-29 43 -29 71s9.66699 51.667 29 71s43 29 71 29s51.667 -9.66699 71 -29s29 -43 29 -71z" />
    <glyph glyph-name="uniFEAA" unicode="&#x62f;" horiz-adv-x="1300" arabic-form="final" 
d="M1353 0l-1153 0.00195312v150h800v170c0 41.333 -21 81.666 -63 120.999s-87.667 59 -137 59h-500v100h580c108.667 0 189.167 -24.833 241.5 -74.5s78.5 -124.834 78.5 -225.501v-150h153v-150z" />
    <glyph glyph-name="uniFEAC" unicode="&#x630;" horiz-adv-x="1300" arabic-form="final" 
d="M1353 0l-1153 0.00195312v150h800v170c0 41.333 -21 81.666 -63 120.999s-87.667 59 -137 59h-500v100h580c108.667 0 189.167 -24.833 241.5 -74.5s78.5 -124.834 78.5 -225.501v-150h153v-150zM400 902.002c0 -28 -9.66699 -51.667 -29 -71s-43 -29 -71 -29
s-51.667 9.66699 -71 29s-29 43 -29 71s9.66699 51.667 29 71s43 29 71 29s51.667 -9.66699 71 -29s29 -43 29 -71z" />
    <glyph glyph-name="uniFEAE" unicode="&#x631;" horiz-adv-x="700" arabic-form="final" 
d="M400 300c0 35.333 5.83301 66.668 17.5 94.001s39.167 62.666 82.5 105.999l100 100v-450h150v-150h-150c0 -129.333 -41.667 -230.333 -125 -303c-74 -64.667 -165.667 -97 -275 -97h-200v100h100c82 0 151 25 207 75c62 55.333 93 130.333 93 225v300z" />
    <glyph glyph-name="uniFEB0" unicode="&#x632;" horiz-adv-x="700" arabic-form="final" 
d="M500 892c0 -28 -9.66699 -51.667 -29 -71s-43 -29 -71 -29s-51.667 9.66699 -71 29s-29 43 -29 71s9.66699 51.667 29 71s43 29 71 29s51.667 -9.66699 71 -29s29 -43 29 -71zM400 300c0 35.333 5.83301 66.668 17.5 94.001s39.167 62.666 82.5 105.999l100 100v-450h150
v-150h-150c0 -129.333 -41.667 -230.333 -125 -303c-74 -64.667 -165.667 -97 -275 -97h-200v100h100c82 0 151 25 207 75c62 55.333 93 130.333 93 225v300z" />
    <glyph glyph-name="uniFEB2" unicode="&#x633;" horiz-adv-x="1700" arabic-form="final" 
d="M1100 0c-53.333 0 -109 -34.333 -167 -103c-101.333 -120 -157 -184.333 -167 -193c-78 -69.333 -166.667 -104 -266 -104c-153.333 0 -274 55.333 -362 166c-92 115.333 -138 276.666 -138 483.999h100c0 -156 32.667 -284 98 -384
c72.667 -110.667 173.334 -166 302.001 -166c85.333 0 156.666 32.833 213.999 98.5s86 143.167 86 232.5v169c0 46.667 7.33301 83.334 22 110.001c10 18 36 48 78 90l100 100v-350h100c28 0 51.667 9.66699 71 29s29 43 29 71v250l100 100v-450h100
c29.333 0 53.333 8.66699 72 26s28 42 28 74v350l100 100v-550h160v-150h-660z" />
    <glyph glyph-name="uniFEB3" unicode="&#x633;" horiz-adv-x="1100" arabic-form="initial" 
d="M1000 0l-1000 -0.000976562v150h100c29.333 0 53.333 9 72 27s28 42.333 28 73v50c0 46.667 7.33301 83.334 22 110.001c10 18 36 48 78 90l100 100v-450h100c28 0 51.667 9.66699 71 29s29 43 29 71v250l100 100v-450h100c29.333 0 53.333 8.66699 72 26s28 42 28 74
v350l100 100v-700z" />
    <glyph glyph-name="uniFEB4" unicode="&#x633;" horiz-adv-x="1100" arabic-form="medial" 
d="M1150 0l-1150 -0.000976562v150h100c29.333 0 53.333 9 72 27s28 42.333 28 73v50c0 46.667 7.33301 83.334 22 110.001c10 18 36 48 78 90l100 100v-450h100c28 0 51.667 9.66699 71 29s29 43 29 71v250l100 100v-450h100c29.333 0 53.333 8.66699 72 26s28 42 28 74
v350l100 100v-550h150v-150z" />
    <glyph glyph-name="uniFEB6" unicode="&#x634;" horiz-adv-x="1700" arabic-form="final" 
d="M1100 0c-53.333 0 -109 -34.333 -167 -103c-101.333 -120 -157 -184.333 -167 -193c-78 -69.333 -166.667 -104 -266 -104c-153.333 0 -274 55.333 -362 166c-92 115.333 -138 276.666 -138 483.999h100c0 -156 32.667 -284 98 -384
c72.667 -110.667 173.334 -166 302.001 -166c85.333 0 156.666 32.833 213.999 98.5s86 143.167 86 232.5v169c0 46.667 7.33301 83.334 22 110.001c10 18 36 48 78 90l100 100v-350h100c28 0 51.667 9.66699 71 29s29 43 29 71v250l100 100v-450h100
c29.333 0 53.333 8.66699 72 26s28 42 28 74v350l100 100v-550h160v-150h-660zM1363 1056c0 -28 -9.66699 -51.667 -29 -71s-43 -29 -71 -29s-51.667 9.66699 -71 29s-29 43 -29 71s9.66699 51.667 29 71s43 29 71 29s51.667 -9.66699 71 -29s29 -43 29 -71zM1485 800
c0 -28 -9.66699 -51.667 -29 -71s-43 -29 -71 -29s-51.667 9.66699 -71 29s-29 43 -29 71s9.66699 51.667 29 71s43 29 71 29s51.667 -9.66699 71 -29s29 -43 29 -71zM1245 800c0 -28 -9.66699 -51.667 -29 -71s-43 -29 -71 -29s-51.667 9.66699 -71 29s-29 43 -29 71
s9.66699 51.667 29 71s43 29 71 29s51.667 -9.66699 71 -29s29 -43 29 -71z" />
    <glyph glyph-name="uniFEB7" unicode="&#x634;" horiz-adv-x="1100" arabic-form="initial" 
d="M1000 0l-1000 -0.000976562v150h100c29.333 0 53.333 9 72 27s28 42.333 28 73v50c0 46.667 7.33301 83.334 22 110.001c10 18 36 48 78 90l100 100v-450h100c28 0 51.667 9.66699 71 29s29 43 29 71v250l100 100v-450h100c29.333 0 53.333 8.66699 72 26s28 42 28 74
v350l100 100v-700zM758 1056c0 -28 -9.66699 -51.667 -29 -71s-43 -29 -71 -29s-51.667 9.66699 -71 29s-29 43 -29 71s9.66699 51.667 29 71s43 29 71 29s51.667 -9.66699 71 -29s29 -43 29 -71zM880 799.999c0 -28 -9.66699 -51.667 -29 -71s-43 -29 -71 -29
s-51.667 9.66699 -71 29s-29 43 -29 71s9.66699 51.667 29 71s43 29 71 29s51.667 -9.66699 71 -29s29 -43 29 -71zM640 799.999c0 -28 -9.66699 -51.667 -29 -71s-43 -29 -71 -29s-51.667 9.66699 -71 29s-29 43 -29 71s9.66699 51.667 29 71s43 29 71 29
s51.667 -9.66699 71 -29s29 -43 29 -71z" />
    <glyph glyph-name="uniFEB8" unicode="&#x634;" horiz-adv-x="1100" arabic-form="medial" 
d="M1150 0l-1150 -0.000976562v150h100c29.333 0 53.333 9 72 27s28 42.333 28 73v50c0 46.667 7.33301 83.334 22 110.001c10 18 36 48 78 90l100 100v-450h100c28 0 51.667 9.66699 71 29s29 43 29 71v250l100 100v-450h100c29.333 0 53.333 8.66699 72 26s28 42 28 74
v350l100 100v-550h150v-150zM758 1056c0 -28 -9.66699 -51.667 -29 -71s-43 -29 -71 -29s-51.667 9.66699 -71 29s-29 43 -29 71s9.66699 51.667 29 71s43 29 71 29s51.667 -9.66699 71 -29s29 -43 29 -71zM880 799.999c0 -28 -9.66699 -51.667 -29 -71s-43 -29 -71 -29
s-51.667 9.66699 -71 29s-29 43 -29 71s9.66699 51.667 29 71s43 29 71 29s51.667 -9.66699 71 -29s29 -43 29 -71zM640 799.999c0 -28 -9.66699 -51.667 -29 -71s-43 -29 -71 -29s-51.667 9.66699 -71 29s-29 43 -29 71s9.66699 51.667 29 71s43 29 71 29
s51.667 -9.66699 71 -29s29 -43 29 -71z" />
    <glyph glyph-name="uniFEBA" unicode="&#x635;" horiz-adv-x="2000" arabic-form="final" 
d="M2060 0h-959.999c-53.333 0 -109 -34.333 -167 -103c-101.333 -120 -157 -184.333 -167 -193c-78 -69.333 -166.667 -104 -266 -104c-153.333 0 -274 55.333 -362 166c-92 115.333 -138 276.666 -138 483.999h100c0 -156 32.667 -284 98 -384
c72.667 -110.667 173.334 -166 302.001 -166c85.333 0 156.666 32.833 213.999 98.5s86 143.167 86 232.5v269c0 46.667 7.33301 83.334 22 110.001c10 18 36 48 78 90l100 100v-409l100 100c106.667 106.667 197 183.667 271 231c81.333 52 157.666 78 228.999 78
c82.667 0 152 -25 208 -75c61.333 -55.333 92 -130.333 92 -225v-150h160v-150zM1750 250l0.000976562 47c0 57.333 -14.833 105.5 -44.5 144.5s-64.834 58.5 -105.501 58.5c-52 0 -109.167 -19.167 -171.5 -57.5s-138.5 -102.5 -228.5 -192.5l-100 -100h500
c100 0 150 33.333 150 100z" />
    <glyph glyph-name="uniFEBB" unicode="&#x635;" horiz-adv-x="1300" arabic-form="initial" 
d="M1300 0l-1300 -0.000976562v150h200v150c0 46.667 7.33301 83.334 22 110.001c10 18 36 48 78 90l100 100v-409l100 100c106.667 106.667 197 183.667 271 231c81.333 52 157.666 78 228.999 78c82.667 0 152 -25 208 -75c61.333 -55.333 92 -130.333 92 -225v-300z
M1150 249.999l0.000976562 47c0 57.333 -14.833 105.5 -44.5 144.5s-64.834 58.5 -105.501 58.5c-52 0 -109.167 -19.167 -171.5 -57.5s-138.5 -102.5 -228.5 -192.5l-100 -100h500c100 0 150 33.333 150 100z" />
    <glyph glyph-name="uniFEBC" unicode="&#x635;" horiz-adv-x="1400" arabic-form="medial" 
d="M1454 0l-1454 -0.000976562v150h200v150c0 46.667 7.33301 83.334 22 110.001c10 18 36 48 78 90l100 100v-409l100 100c106.667 106.667 197 183.667 271 231c81.333 52 157.666 78 228.999 78c82.667 0 152 -25 208 -75c61.333 -55.333 92 -130.333 92 -225v-150h154
v-150zM1150 249.999l0.000976562 47c0 57.333 -14.833 105.5 -44.5 144.5s-64.834 58.5 -105.501 58.5c-52 0 -109.167 -19.167 -171.5 -57.5s-138.5 -102.5 -228.5 -192.5l-100 -100h500c100 0 150 33.333 150 100z" />
    <glyph glyph-name="uniFEBE" unicode="&#x636;" horiz-adv-x="2000" arabic-form="final" 
d="M1400 800c0 -28 -9.66699 -51.667 -29 -71s-43 -29 -71 -29s-51.667 9.66699 -71 29s-29 43 -29 71s9.66699 51.667 29 71s43 29 71 29s51.667 -9.66699 71 -29s29 -43 29 -71zM2060 0h-959.999c-53.333 0 -109 -34.333 -167 -103c-101.333 -120 -157 -184.333 -167 -193
c-78 -69.333 -166.667 -104 -266 -104c-153.333 0 -274 55.333 -362 166c-92 115.333 -138 276.666 -138 483.999h100c0 -156 32.667 -284 98 -384c72.667 -110.667 173.334 -166 302.001 -166c85.333 0 156.666 32.833 213.999 98.5s86 143.167 86 232.5v269
c0 46.667 7.33301 83.334 22 110.001c10 18 36 48 78 90l100 100v-409l100 100c106.667 106.667 197 183.667 271 231c81.333 52 157.666 78 228.999 78c82.667 0 152 -25 208 -75c61.333 -55.333 92 -130.333 92 -225v-150h160v-150zM1750 250l0.000976562 47
c0 57.333 -14.833 105.5 -44.5 144.5s-64.834 58.5 -105.501 58.5c-52 0 -109.167 -19.167 -171.5 -57.5s-138.5 -102.5 -228.5 -192.5l-100 -100h500c100 0 150 33.333 150 100z" />
    <glyph glyph-name="uniFEBF" unicode="&#x636;" horiz-adv-x="1300" arabic-form="initial" 
d="M800 800c0 -28 -9.66699 -51.667 -29 -71s-43 -29 -71 -29s-51.667 9.66699 -71 29s-29 43 -29 71s9.66699 51.667 29 71s43 29 71 29s51.667 -9.66699 71 -29s29 -43 29 -71zM1300 0l-1300 -0.000976562v150h200v150c0 46.667 7.33301 83.334 22 110.001
c10 18 36 48 78 90l100 100v-409l100 100c106.667 106.667 197 183.667 271 231c81.333 52 157.666 78 228.999 78c82.667 0 152 -25 208 -75c61.333 -55.333 92 -130.333 92 -225v-300zM1150 249.999l0.000976562 47c0 57.333 -14.833 105.5 -44.5 144.5
s-64.834 58.5 -105.501 58.5c-52 0 -109.167 -19.167 -171.5 -57.5s-138.5 -102.5 -228.5 -192.5l-100 -100h500c100 0 150 33.333 150 100z" />
    <glyph glyph-name="uniFEC0" unicode="&#x636;" horiz-adv-x="1400" arabic-form="medial" 
d="M800 800c0 -28 -9.66699 -51.667 -29 -71s-43 -29 -71 -29s-51.667 9.66699 -71 29s-29 43 -29 71s9.66699 51.667 29 71s43 29 71 29s51.667 -9.66699 71 -29s29 -43 29 -71zM1454 0l-1454 -0.000976562v150h200v150c0 46.667 7.33301 83.334 22 110.001
c10 18 36 48 78 90l100 100v-409l100 100c106.667 106.667 197 183.667 271 231c81.333 52 157.666 78 228.999 78c82.667 0 152 -25 208 -75c61.333 -55.333 92 -130.333 92 -225v-150h154v-150zM1150 249.999l0.000976562 47c0 57.333 -14.833 105.5 -44.5 144.5
s-64.834 58.5 -105.501 58.5c-52 0 -109.167 -19.167 -171.5 -57.5s-138.5 -102.5 -228.5 -192.5l-100 -100h500c100 0 150 33.333 150 100z" />
    <glyph glyph-name="uniFEC2" unicode="&#x637;" horiz-adv-x="1400" arabic-form="final" 
d="M1250 250l0.000976562 47c0 57.333 -14.833 105.5 -44.5 144.5s-64.834 58.5 -105.501 58.5c-52 0 -109.167 -19.167 -171.5 -57.5s-138.5 -102.5 -228.5 -192.5l-100 -100h500c100 0 150 33.333 150 100zM600.001 291l186 181.001c64.667 60 119 103 163 129
c54.667 32.667 105 49 151 49c103.333 0 178.333 -25.667 225 -77c50 -55.333 75 -146.333 75 -273v-150h150v-150h-1250c-60 0 -115.333 12.667 -166 38c-37.333 18.667 -70.666 42.667 -99.999 72l-34 40h400v1150l100 -100c33.333 -33.333 54.666 -56.333 63.999 -69
c24 -32.667 36 -76.334 36 -131.001v-709z" />
    <glyph glyph-name="uniFEC3" unicode="&#x637;" horiz-adv-x="1200" arabic-form="initial" 
d="M1050 250l0.000976562 47c0 57.333 -14.833 105.5 -44.5 144.5s-64.834 58.5 -105.501 58.5c-52 0 -109.167 -19.167 -171.5 -57.5s-138.5 -102.5 -228.5 -192.5l-100 -100h500c100 0 150 33.333 150 100zM400.001 291l186.001 181.001c64.667 60 119 103 163 129
c54.667 32.667 105 49 151 49c103.333 0 178.333 -25.667 225 -77c50 -55.333 75 -146.333 75 -273v-300h-1200v150h200v1150l100 -100c33.333 -33.333 54.666 -56.333 63.999 -69c24 -32.667 36 -76.334 36 -131.001v-709z" />
    <glyph glyph-name="uniFEC4" unicode="&#x637;" horiz-adv-x="1200" arabic-form="medial" 
d="M1050 250l0.000976562 47c0 57.333 -14.833 105.5 -44.5 144.5s-64.834 58.5 -105.501 58.5c-52 0 -109.167 -19.167 -171.5 -57.5s-138.5 -102.5 -228.5 -192.5l-100 -100h500c100 0 150 33.333 150 100zM400.001 291l186.001 181.001c64.667 60 119 103 163 129
c54.667 32.667 105 49 151 49c103.333 0 178.333 -25.667 225 -77c50 -55.333 75 -146.333 75 -273v-150h150v-150h-1350v150h200v1150l100 -100c33.333 -33.333 54.666 -56.333 63.999 -69c24 -32.667 36 -76.334 36 -131.001v-709z" />
    <glyph glyph-name="uniFEC6" unicode="&#x638;" horiz-adv-x="1400" arabic-form="final" 
d="M900 800c0 -28 -9.66699 -51.667 -29 -71s-43 -29 -71 -29s-51.667 9.66699 -71 29s-29 43 -29 71s9.66699 51.667 29 71s43 29 71 29s51.667 -9.66699 71 -29s29 -43 29 -71zM1250 250l0.000976562 47c0 57.333 -14.833 105.5 -44.5 144.5s-64.834 58.5 -105.501 58.5
c-52 0 -109.167 -19.167 -171.5 -57.5s-138.5 -102.5 -228.5 -192.5l-100 -100h500c100 0 150 33.333 150 100zM600.001 291l186 181.001c64.667 60 119 103 163 129c54.667 32.667 105 49 151 49c103.333 0 178.333 -25.667 225 -77c50 -55.333 75 -146.333 75 -273v-150
h150v-150h-1250c-60 0 -115.333 12.667 -166 38c-37.333 18.667 -70.666 42.667 -99.999 72l-34 40h400v1150l100 -100c33.333 -33.333 54.666 -56.333 63.999 -69c24 -32.667 36 -76.334 36 -131.001v-709z" />
    <glyph glyph-name="uniFEC7" unicode="&#x638;" horiz-adv-x="1200" arabic-form="initial" 
d="M700 800c0 -28 -9.66699 -51.667 -29 -71s-43 -29 -71 -29s-51.667 9.66699 -71 29s-29 43 -29 71s9.66699 51.667 29 71s43 29 71 29s51.667 -9.66699 71 -29s29 -43 29 -71zM1050 250l0.000976562 47c0 57.333 -14.833 105.5 -44.5 144.5s-64.834 58.5 -105.501 58.5
c-52 0 -109.167 -19.167 -171.5 -57.5s-138.5 -102.5 -228.5 -192.5l-100 -100h500c100 0 150 33.333 150 100zM400.001 291l186.001 181.001c64.667 60 119 103 163 129c54.667 32.667 105 49 151 49c103.333 0 178.333 -25.667 225 -77c50 -55.333 75 -146.333 75 -273
v-300h-1200v150h200v1150l100 -100c33.333 -33.333 54.666 -56.333 63.999 -69c24 -32.667 36 -76.334 36 -131.001v-709z" />
    <glyph glyph-name="uniFEC8" unicode="&#x638;" horiz-adv-x="1200" arabic-form="medial" 
d="M700 800c0 -28 -9.66699 -51.667 -29 -71s-43 -29 -71 -29s-51.667 9.66699 -71 29s-29 43 -29 71s9.66699 51.667 29 71s43 29 71 29s51.667 -9.66699 71 -29s29 -43 29 -71zM1050 250l0.000976562 47c0 57.333 -14.833 105.5 -44.5 144.5s-64.834 58.5 -105.501 58.5
c-52 0 -109.167 -19.167 -171.5 -57.5s-138.5 -102.5 -228.5 -192.5l-100 -100h500c100 0 150 33.333 150 100zM400.001 291l186.001 181.001c64.667 60 119 103 163 129c54.667 32.667 105 49 151 49c103.333 0 178.333 -25.667 225 -77c50 -55.333 75 -146.333 75 -273
v-150h150v-150h-1350v150h200v1150l100 -100c33.333 -33.333 54.666 -56.333 63.999 -69c24 -32.667 36 -76.334 36 -131.001v-709z" />
    <glyph glyph-name="uniFECA" unicode="&#x639;" horiz-adv-x="800" arabic-form="final" 
d="M375 316l94 94.001c22 22 37.667 40.167 47 54.5s14 26.166 14 35.499c0 22.667 -12.333 43.667 -37 63c-31.333 24.667 -74.333 37 -129 37h-134c-26 0 -49.167 -6.66699 -69.5 -20s-30.5 -26 -30.5 -38l40 -30c30 -23.333 53.333 -43.333 70 -60zM411 105.001
l-62.001 -61.999c-51.333 -51.333 -96.333 -106.666 -135 -165.999c-26.667 -41.333 -49.667 -83.666 -69 -126.999l-20 -50c0 -25.333 11.667 -48 35 -68c35.333 -30 94 -53.333 176 -70c104 -21.333 243.333 -32 418 -32h171l-100 -100h-225
c-210.667 0 -356.334 17 -437.001 51c-92 38.667 -138 111.667 -138 219v107c0 52 13.667 104.333 41 157c31.333 60 82.333 125.333 153 196l67 67l-86 87c-37.333 38 -71.666 66.333 -102.999 85c-34.667 20.667 -67 31 -97 31v70c0 78.667 20.667 133.667 62 165
c30.667 23.333 76.667 35 138 35h354c55.333 0 99.333 -12 132 -36c38.667 -28 58 -70 58 -126c0 -40.667 -7 -75.334 -21 -104.001c-11.333 -22.667 -31 -48 -59 -76l-158 -158c34 -18.667 74.333 -32.334 121 -41.001c32.667 -6 63.667 -9 93 -9h130v-150h-118
c-55.333 0 -107 6.66699 -155 20c-63.333 17.333 -118.666 45.666 -165.999 84.999z" />
    <glyph glyph-name="uniFECB" unicode="&#x639;" horiz-adv-x="1020" arabic-form="initial" 
d="M800 0l-800.003 -0.00195312v150h200v250c0 86.667 25 157.334 75 212.001c54 58.667 129 88 225 88s182 -19.333 258 -58c70.667 -36 122.667 -83.333 156 -142h-114c-24 29.333 -60.333 54 -109 74c-42.667 17.333 -80.667 26 -114 26
c-43.333 0 -82.333 -12.667 -117 -38c-40 -29.333 -60 -66.666 -60 -111.999v-50c0 -80 30.333 -141.667 91 -185s144.334 -65 251.001 -65h258c-15.333 -33.333 -29.666 -58.333 -42.999 -75c-41.333 -50 -93.666 -75 -156.999 -75z" />
    <glyph glyph-name="uniFECC" unicode="&#x639;" arabic-form="medial" 
d="M545 316l94 93.999c24.667 24.667 41 42.834 49 54.501s12 23.5 12 35.5c0 27.333 -12.333 50 -37 68c-29.333 21.333 -72.333 32 -129 32h-134c-26 0 -49.167 -6.66699 -69.5 -20s-30.5 -26 -30.5 -38l40 -30c30 -23.333 53.333 -43.333 70 -60zM676 199.999
c34 -18.667 74.3301 -32.333 120.997 -41c32.667 -6 63.667 -9 93 -9h160v-150h-148c-55.333 0 -107.666 7 -156.999 21c-64.667 18 -120.334 47 -167.001 87c-44 -34 -90.833 -60.5 -140.5 -79.5s-95.5 -28.5 -137.5 -28.5h-300v150h170
c54.667 0 104.834 6.33301 150.501 19s89.5 33.667 131.5 63l-82 82c-38 38 -72.333 66.333 -103 85c-34 20.667 -66.333 31 -97 31v70c0 78.667 20.667 133.667 62 165c30.667 23.333 76.667 35 138 35h354c52.667 0 94.334 -13 125.001 -39c34 -29.333 51 -72.333 51 -129
c0 -44.667 -4.16699 -78 -12.5 -100s-26.166 -46.667 -53.499 -74z" />
    <glyph glyph-name="uniFECE" unicode="&#x63a;" horiz-adv-x="800" arabic-form="final" 
d="M430 904c0 -28 -9.66699 -51.667 -29 -71s-43 -29 -71 -29s-51.667 9.66699 -71 29s-29 43 -29 71s9.66699 51.667 29 71s43 29 71 29s51.667 -9.66699 71 -29s29 -43 29 -71zM375 316l94 94.001c22 22 37.667 40.167 47 54.5s14 26.166 14 35.499
c0 22.667 -12.333 43.667 -37 63c-31.333 24.667 -74.333 37 -129 37h-134c-26 0 -49.167 -6.66699 -69.5 -20s-30.5 -26 -30.5 -38l40 -30c30 -23.333 53.333 -43.333 70 -60zM411 105.001l-62.001 -61.999c-51.333 -51.333 -96.333 -106.666 -135 -165.999
c-26.667 -41.333 -49.667 -83.666 -69 -126.999l-20 -50c0 -25.333 11.667 -48 35 -68c35.333 -30 94 -53.333 176 -70c104 -21.333 243.333 -32 418 -32h171l-100 -100h-225c-210.667 0 -356.334 17 -437.001 51c-92 38.667 -138 111.667 -138 219v107
c0 52 13.667 104.333 41 157c31.333 60 82.333 125.333 153 196l67 67l-86 87c-37.333 38 -71.666 66.333 -102.999 85c-34.667 20.667 -67 31 -97 31v70c0 78.667 20.667 133.667 62 165c30.667 23.333 76.667 35 138 35h354c55.333 0 99.333 -12 132 -36
c38.667 -28 58 -70 58 -126c0 -40.667 -7 -75.334 -21 -104.001c-11.333 -22.667 -31 -48 -59 -76l-158 -158c34 -18.667 74.333 -32.334 121 -41.001c32.667 -6 63.667 -9 93 -9h130v-150h-118c-55.333 0 -107 6.66699 -155 20
c-63.333 17.333 -118.666 45.666 -165.999 84.999z" />
    <glyph glyph-name="uniFECF" unicode="&#x63a;" horiz-adv-x="1020" arabic-form="initial" 
d="M600 949c0 -28 -9.66699 -51.667 -29 -71s-43 -29 -71 -29s-51.667 9.66699 -71 29s-29 43 -29 71s9.66699 51.667 29 71s43 29 71 29s51.667 -9.66699 71 -29s29 -43 29 -71zM800 0l-800.003 -0.00195312v150h200v250c0 86.667 25 157.334 75 212.001
c54 58.667 129 88 225 88s182 -19.333 258 -58c70.667 -36 122.667 -83.333 156 -142h-114c-24 29.333 -60.333 54 -109 74c-42.667 17.333 -80.667 26 -114 26c-43.333 0 -82.333 -12.667 -117 -38c-40 -29.333 -60 -66.666 -60 -111.999v-50
c0 -80 30.333 -141.667 91 -185s144.334 -65 251.001 -65h258c-15.333 -33.333 -29.666 -58.333 -42.999 -75c-41.333 -50 -93.666 -75 -156.999 -75z" />
    <glyph glyph-name="uniFED0" unicode="&#x63a;" arabic-form="medial" 
d="M600 904c0 -28 -9.66699 -51.667 -29 -71s-43 -29 -71 -29s-51.667 9.66699 -71 29s-29 43 -29 71s9.66699 51.667 29 71s43 29 71 29s51.667 -9.66699 71 -29s29 -43 29 -71zM545 316l94 93.999c24.667 24.667 41 42.834 49 54.501s12 23.5 12 35.5
c0 27.333 -12.333 50 -37 68c-29.333 21.333 -72.333 32 -129 32h-134c-26 0 -49.167 -6.66699 -69.5 -20s-30.5 -26 -30.5 -38l40 -30c30 -23.333 53.333 -43.333 70 -60zM676 199.999c34 -18.667 74.3301 -32.333 120.997 -41c32.667 -6 63.667 -9 93 -9h160v-150h-148
c-55.333 0 -107.666 7 -156.999 21c-64.667 18 -120.334 47 -167.001 87c-44 -34 -90.833 -60.5 -140.5 -79.5s-95.5 -28.5 -137.5 -28.5h-300v150h170c54.667 0 104.834 6.33301 150.501 19s89.5 33.667 131.5 63l-82 82c-38 38 -72.333 66.333 -103 85
c-34 20.667 -66.333 31 -97 31v70c0 78.667 20.667 133.667 62 165c30.667 23.333 76.667 35 138 35h354c52.667 0 94.334 -13 125.001 -39c34 -29.333 51 -72.333 51 -129c0 -44.667 -4.16699 -78 -12.5 -100s-26.166 -46.667 -53.499 -74z" />
    <glyph glyph-name="uniFED2" unicode="&#x641;" horiz-adv-x="1500" arabic-form="final" 
d="M1200 150v150c0 50 -20.833 95.833 -62.5 137.5s-87.5 62.5 -137.5 62.5c-58 0 -103.667 -9.33301 -137 -28c-42 -24 -63 -61.333 -63 -112c0 -66.667 44.667 -119.667 134 -159c77.333 -34 166 -51 266 -51zM800 800c0 28 9.66699 51.667 29 71s43 29 71 29
s51.667 -9.66699 71 -29s29 -43 29 -71s-9.66699 -51.667 -29 -71s-43 -29 -71 -29s-51.667 9.66699 -71 29s-29 43 -29 71zM300 0c-98 0 -172.498 24.498 -223.498 73.498s-76.5 116.5 -76.5 202.5c0 62 21.333 120.333 64 175c35.333 44.667 78.666 81.667 129.999 111
c44.667 25.333 80 38 106 38l70 -70c-44.667 0 -98.667 -23 -162 -69c-72 -52 -108 -105.667 -108 -161s26.333 -94.666 79 -117.999c48 -21.333 121.667 -32 221 -32h400c-22.667 16.667 -39.334 31.667 -50.001 45c-33.333 41.333 -50 89 -50 143
c0 78.667 25 141.334 75 188.001c53.333 49.333 128.333 74 225 74c121.333 0 218.333 -32.5 291 -97.5s109 -149.167 109 -252.5v-100h160v-150h-1260z" />
    <glyph glyph-name="uniFED3" unicode="&#x641;" horiz-adv-x="900" arabic-form="initial" 
d="M700 150v150c0 50 -20.833 95.833 -62.5 137.5s-87.5 62.5 -137.5 62.5c-58 0 -103.667 -9.33301 -137 -28c-42 -24 -63 -61.333 -63 -112c0 -66.667 44.667 -119.667 134 -159c77.333 -34 166 -51 266 -51zM0 150l300.001 -0.000976562
c-22.667 16.667 -39.334 31.667 -50.001 45c-33.333 41.333 -50 89 -50 143c0 78.667 25 141.334 75 188.001c53.333 49.333 128.333 74 225 74c121.333 0 218.333 -32.5 291 -97.5s109 -149.167 109 -252.5v-250h-900v150zM400.001 799.999c0 28 9.66699 51.667 29 71
s43 29 71 29s51.667 -9.66699 71 -29s29 -43 29 -71s-9.66699 -51.667 -29 -71s-43 -29 -71 -29s-51.667 9.66699 -71 29s-29 43 -29 71z" />
    <glyph glyph-name="uniFED4" unicode="&#x641;" arabic-form="medial" 
d="M700 150v150c0 50 -20.833 95.833 -62.5 137.5s-87.5 62.5 -137.5 62.5c-58 0 -103.667 -9.33301 -137 -28c-42 -24 -63 -61.333 -63 -112c0 -66.667 44.667 -119.667 134 -159c77.333 -34 166 -51 266 -51zM0 150l300.001 -0.000976562
c-22.667 16.667 -39.334 31.667 -50.001 45c-33.333 41.333 -50 89 -50 143c0 78.667 25 141.334 75 188.001c53.333 49.333 128.333 74 225 74c121.333 0 218.333 -32.5 291 -97.5s109 -149.167 109 -252.5v-100h160v-150h-1060v150zM400.001 799.999
c0 28 9.66699 51.667 29 71s43 29 71 29s51.667 -9.66699 71 -29s29 -43 29 -71s-9.66699 -51.667 -29 -71s-43 -29 -71 -29s-51.667 9.66699 -71 29s-29 43 -29 71z" />
    <glyph glyph-name="uniFED6" unicode="&#x642;" horiz-adv-x="1100" arabic-form="final" 
d="M800 150l0.000976562 150c0 50 -20.833 95.833 -62.5 137.5s-87.5 62.5 -137.5 62.5c-52.667 0 -98.334 -16 -137.001 -48c-42 -34.667 -63 -78.667 -63 -132c0 -59.333 30 -102.5 90 -129.5s163.333 -40.5 310 -40.5zM800.001 800c0 -28 -9.66699 -51.667 -29 -71
s-43 -29 -71 -29s-51.667 9.66699 -71 29s-29 43 -29 71s9.66699 51.667 29 71s43 29 71 29s51.667 -9.66699 71 -29s29 -43 29 -71zM560.001 800c0 -28 -9.66699 -51.667 -29 -71s-43 -29 -71 -29s-51.667 9.66699 -71 29s-29 43 -29 71s9.66699 51.667 29 71s43 29 71 29
s51.667 -9.66699 71 -29s29 -43 29 -71zM800.001 0h-200c-92.667 -0 -167.667 33.333 -225 100c-50 58.667 -75 124.667 -75 198c0 82 25 151.333 75 208c55.333 62.667 130.333 94 225 94c121.333 0 218.333 -32.5 291 -97.5s109 -149.167 109 -252.5v-100h150v-150h-150
c0 -106 -39.667 -196.333 -119 -271c-91.333 -86 -218.333 -129 -381 -129c-156 0 -276.667 52 -362 156c-92 112 -138 276.667 -138 494h100c0 -152 35.333 -280 106 -384c75.333 -110.667 173.333 -166 294 -166c79.333 0 151 32.333 215 97
c56.667 57.333 85 111.333 85 162v41z" />
    <glyph glyph-name="uniFED7" unicode="&#x642;" horiz-adv-x="900" arabic-form="initial" 
d="M700 150v150c0 50 -20.833 95.833 -62.5 137.5s-87.5 62.5 -137.5 62.5c-58 0 -103.667 -9.33301 -137 -28c-42 -24 -63 -61.333 -63 -112c0 -66.667 44.667 -119.667 134 -159c77.333 -34 166 -51 266 -51zM0 150l300.001 -0.000976562
c-22.667 16.667 -39.334 31.667 -50.001 45c-33.333 41.333 -50 89 -50 143c0 78.667 25 141.334 75 188.001c53.333 49.333 128.333 74 225 74c121.333 0 218.333 -32.5 291 -97.5s109 -149.167 109 -252.5v-250h-900v150zM600.001 799.999c0 -28 -9.66699 -51.667 -29 -71
s-43 -29 -71 -29s-51.667 9.66699 -71 29s-29 43 -29 71s9.66699 51.667 29 71s43 29 71 29s51.667 -9.66699 71 -29s29 -43 29 -71zM360.001 799.999c0 -28 -9.66699 -51.667 -29 -71s-43 -29 -71 -29s-51.667 9.66699 -71 29s-29 43 -29 71s9.66699 51.667 29 71
s43 29 71 29s51.667 -9.66699 71 -29s29 -43 29 -71z" />
    <glyph glyph-name="uniFED8" unicode="&#x642;" arabic-form="medial" 
d="M700 150v150c0 50 -20.833 95.833 -62.5 137.5s-87.5 62.5 -137.5 62.5c-58 0 -103.667 -9.33301 -137 -28c-42 -24 -63 -61.333 -63 -112c0 -66.667 44.667 -119.667 134 -159c77.333 -34 166 -51 266 -51zM0 150l300.001 -0.000976562
c-22.667 16.667 -39.334 31.667 -50.001 45c-33.333 41.333 -50 89 -50 143c0 78.667 25 141.334 75 188.001c53.333 49.333 128.333 74 225 74c121.333 0 218.333 -32.5 291 -97.5s109 -149.167 109 -252.5v-100h160v-150h-1060v150zM600.001 799.999
c0 -28 -9.66699 -51.667 -29 -71s-43 -29 -71 -29s-51.667 9.66699 -71 29s-29 43 -29 71s9.66699 51.667 29 71s43 29 71 29s51.667 -9.66699 71 -29s29 -43 29 -71zM360.001 799.999c0 -28 -9.66699 -51.667 -29 -71s-43 -29 -71 -29s-51.667 9.66699 -71 29
s-29 43 -29 71s9.66699 51.667 29 71s43 29 71 29s51.667 -9.66699 71 -29s29 -43 29 -71z" />
    <glyph glyph-name="uniFEDE" unicode="&#x644;" horiz-adv-x="1100" arabic-form="final" 
d="M1000 0c0 -125.333 -39.667 -222.001 -119 -290.001c-85.333 -73.333 -212.333 -110 -381 -110c-156 0 -276.667 52 -362 156c-92 112 -138 276.667 -138 494h100c0 -152 35.333 -280 106 -384c75.333 -110.667 173.333 -166 294 -166c81.333 0 153 30.667 215 92
c56.667 56 85 111.667 85 167v1341l100 -100c33.333 -33.333 56.333 -60.666 69 -81.999c20.667 -34.667 31 -74 31 -118v-850h160v-150h-160z" />
    <glyph glyph-name="uniFEDF" unicode="&#x644;" horiz-adv-x="400" arabic-form="initial" 
d="M400 0l-400 -0.000976562v150h100c26 0 49.167 9.83301 69.5 29.5s30.5 43.167 30.5 70.5v1050l100 -100c33.333 -33.333 56.333 -60.666 69 -81.999c20.667 -34.667 31 -74 31 -118v-1000z" />
    <glyph glyph-name="uniFEE0" unicode="&#x644;" horiz-adv-x="500" arabic-form="medial" 
d="M560 0l-560 0.000976562v150h200v850c0 45.333 10 84.666 30 117.999c12 20 35.333 47.333 70 82l100 100v-1050c0 -27.333 10.167 -50.833 30.5 -70.5s43.5 -29.5 69.5 -29.5h60v-150z" />
    <glyph glyph-name="uniFEE2" unicode="&#x645;" arabic-form="final" 
d="M150 19l-0.00195312 -318.998c0 -64 -12.667 -118.667 -38 -164c-18.667 -33.333 -42.667 -61 -72 -83c-20.667 -15.333 -34 -23 -40 -23v656c0 71.333 9.33301 128.666 28 171.999c25.333 59.333 66.333 89 123 89c37.333 0 73.333 -7.66699 108 -23
c11.333 -4.66699 25 -12.667 41 -24v30c0 83.333 27.833 149.166 83.5 197.499s127.834 72.5 216.501 72.5h100c54.667 0 100.334 -16 137.001 -48c42 -36.667 63 -88 63 -154v-248h160v-150h-460c-65.333 0 -131.333 15.667 -198 47l-171 103
c-17.333 0 -34 -9.33301 -50 -28c-20.667 -24 -31 -58.333 -31 -103zM699.998 150.002v210c0 44 -7.5 78.333 -22.5 103s-31.167 37 -48.5 37h-67c-46 0 -84.5 -19.333 -115.5 -58s-46.5 -80.667 -46.5 -126v-78c22.667 -20 41.667 -34.667 57 -44
c47.333 -29.333 95 -44 143 -44h100z" />
    <glyph glyph-name="uniFEE3" unicode="&#x645;" horiz-adv-x="800" arabic-form="initial" 
d="M600 250l-0.000976562 109.999c0 56.667 -13 96.334 -39 119.001c-16 14 -36.333 21 -61 21c-53.333 0 -100.666 -27.333 -141.999 -82c-38.667 -51.333 -58 -107.333 -58 -168v-100h200c28 0 51.667 9.33301 71 28s29 42.667 29 72zM-0.000976562 149.999h108
c32 0 55.333 10.333 70 31s22 55 22 103v16c0 93.333 35 168.333 105 225c62 50 134.333 75 217 75h278v-600h-800v150z" />
    <glyph glyph-name="uniFEE4" unicode="&#x645;" horiz-adv-x="900" arabic-form="medial" 
d="M600 250l-0.000976562 109.999c0 56.667 -13 96.334 -39 119.001c-16 14 -36.333 21 -61 21c-53.333 0 -100.666 -27.333 -141.999 -82c-38.667 -51.333 -58 -107.333 -58 -168v-100h200c28 0 51.667 9.33301 71 28s29 42.667 29 72zM-0.000976562 149.999h108
c32 0 55.333 10.333 70 31s22 55 22 103v16c0 93.333 35 168.333 105 225c62 50 134.333 75 217 75h278v-450h150v-150h-950v150z" />
    <glyph glyph-name="uniFEE6" unicode="&#x646;" horiz-adv-x="1100" arabic-form="final" 
d="M600 600c0 -28 -9.66699 -51.667 -29 -71s-43 -29 -71 -29s-51.667 9.66699 -71 29s-29 43 -29 71s9.66699 51.667 29 71s43 29 71 29s51.667 -9.66699 71 -29s29 -43 29 -71zM988 0c-22.667 -124.667 -73 -221.333 -151 -290c-84 -73.333 -196.333 -110 -337 -110
c-153.333 0 -274 55.333 -362 166c-92 115.333 -138 276.666 -138 483.999h100c0 -156 32.667 -284 98 -384c72.667 -110.667 173.334 -166 302.001 -166c85.333 0 156.666 32.833 213.999 98.5s86 143.167 86 232.5v269c0 46.667 7.33301 83.334 22 110.001
c10 18 36 48 78 90l100 100v-450h160v-150h-172z" />
    <glyph glyph-name="uniFEE7" unicode="&#x646;" horiz-adv-x="400" arabic-form="initial" 
d="M400 0l-400 -0.000976562v150h100c26.667 0 50 10.333 70 31s30 43.667 30 69v350l100 -100c34.667 -34.667 58 -62 70 -82c20 -33.333 30 -72.666 30 -117.999v-300zM300 799.999c0 -28 -9.66699 -51.667 -29 -71s-43 -29 -71 -29s-51.667 9.66699 -71 29s-29 43 -29 71
s9.66699 51.667 29 71s43 29 71 29s51.667 -9.66699 71 -29s29 -43 29 -71z" />
    </font>
</defs>
</svg>
